<svg xmlns="http://www.w3.org/2000/svg" fill="none" viewBox="0 0 400 400" id="Shipping-4--Streamline-Milano.svg" height="400" width="400"><desc>Shipping 4 Streamline Illustration: https://streamlinehq.com</desc><g id="Shipping-4--Shopping"><g id="car"><g id="Group"><path id="Vector" fill="#000000" d="M358.422 335.292c-2.924 -1.984 -6.146 -3.486 -9.546 -4.448 -9.788 -2.876 -19.838 -4.77 -30 -5.65 -3.752 -0.234 -7.478 -0.79 -11.136 -1.664 -3.398 -1.258 -6.672 -2.824 -9.784 -4.68 -13.866 -7.766 -28.486 -11.096 -44.68 -11.774 -0.132 -0.006 -0.264 0.016 -0.386 0.062 -0.124 0.048 -0.236 0.118 -0.332 0.208 -0.096 0.092 -0.172 0.2 -0.224 0.322 -0.052 0.12 -0.08 0.25 -0.082 0.382 -0.004 0.132 0.02 0.262 0.066 0.384 0.048 0.124 0.12 0.236 0.21 0.33 0.09 0.096 0.198 0.172 0.318 0.224 0.122 0.054 0.25 0.082 0.382 0.086 3.494 0.084 6.98 0.35 10.446 0.8 -9.458 1.022 -18.832 2.728 -28.044 5.102 -0.188 0.048 -0.356 0.15 -0.486 0.292 -0.132 0.142 -0.218 0.318 -0.25 0.508 -0.032 0.192 -0.01 0.386 0.066 0.564 0.078 0.178 0.204 0.328 0.364 0.436 4.512 2.934 8.832 6.158 12.928 9.652 3.4 3.186 5.936 5.412 10.384 5.412 4.02 -0.342 8.01 -0.984 11.934 -1.92 11.254 -1.8 21.586 -3.958 31.568 -6.588 0.93 0.436 1.882 0.856 2.868 1.26 -15.384 3.662 -31.06 6.69 -47.9 9.252 -0.69 0.176 -1.412 0.176 -2.102 0 -0.69 -0.192 -1.31 -0.578 -1.786 -1.114 -5.844 -4.548 -11.886 -9.51 -17.944 -13.836 -4.112 -2.858 -10.142 -4.4 -18.452 -4.708 -6.528 -0.138 -19.6282 -0.766 -20.1602 -0.6 -25.6 7.926 -33.264 18.822 -51.8 23.472 -1.9048 0.3 -3.681 1.15 -5.112 2.442 -0.751 0.854 -1.2794 1.88 -1.538 2.988 -2.6328 8.05 -2.4876 16.75 0.412 24.708 0.237 0.924 0.6712 1.786 1.273 2.526 0.6018 0.74 1.3568 1.34 2.213 1.76 4.2 2.444 8.886 4.826 11.94 4 0.474 0.1 0.72 -0.114 1.124 -0.368 1.256 6 5.304 12.444 10.616 12.448 4.4848 -0.624 8.816 -2.068 12.776 -4.264 0.7718 -0.544 1.4052 -1.262 1.8498 -2.096 0.4446 -0.834 0.6878 -1.76 0.7102 -2.704 46.9002 -0.768 77.1302 1.69 77.9462 1.944 1.264 1.1 2.548 -0.976 2.768 -1.252 3.042 7.158 9.53 12.126 16.618 11.816 4.428 -0.426 8.716 -1.778 12.588 -3.966 1.458 -0.776 2.748 -1.836 3.792 -3.116 1.044 -1.28 1.822 -2.756 2.29 -4.34l11.562 -0.19c4.116 0 8.686 -2.412 12.57 -3.49 8.2 -2.346 31.544 -10.29 40.588 -13.6 0.778 -0.302 1.51 -0.706 2.182 -1.2 0.296 -0.2 0.3 -0.304 1.052 -1.846 3.118 -10.736 0.89 -18.8 -6.66 -23.966Zm-53.856 42.164 -8.06 0.132c-0.182 -7.194 -2.318 -14.202 -6.178 -20.276 1.8 -0.112 3.568 -0.292 5.296 -0.468 10.064 -1.024 5.252 -0.318 26.764 -0.318 3.198 0.642 6.31 1.648 9.278 3 -8.15 0.234 -14.286 0.082 -19.06 3.174 -3.546 2.718 -6.148 6.482 -7.438 10.758 -0.612 1.238 -0.824 2.636 -0.602 3.998Zm-47.756 -5.484 -2.388 -0.052c-0.552 -8.762 -0.824 -17.358 -0.824 -26.1 0 -3.528 0 -7.178 2.132 -9.702 0.102 0.118 0.23 0.21 0.374 0.27 0.144 0.06 0.3 0.086 0.456 0.076 23.82 -1.886 47.756 1.652 70.014 10.344 -2.08 2.51 -3.76 5 -5.832 7.718 -5.064 0 -10.248 -0.024 -15.262 -0.216 -5.672 -0.216 -11.024 0.846 -16.546 1.072 -7.072 -8.944 -18.15 -12.016 -26.666 -4.254 -5.868 5.498 -6.77 12.872 -5.458 20.844Zm39.6 -43.354c12.744 0.916 25.326 3.396 37.466 7.382 4.272 1.132 8.232 3.216 11.584 6.098 -5.576 1.322 -11.12 2.518 -16.712 3.6 -0.138 -0.164 -0.31 -0.294 -0.504 -0.386 -49.956 -19.974 -87.164 -4.498 -31.83 -16.694h-0.004Zm64.532 11.6c0.652 0.774 1.222 1.614 1.702 2.504 -3.644 0.778 -18.374 4.668 -19.894 5.048 -2.646 0.49 -5.244 1.212 -7.764 2.156 -2.714 1.42 -4.99 3.552 -6.588 6.164 -1.72 -0.576 -3.47 -1.054 -5.242 -1.436 1.8 -2.43 3.99 -5.524 5.2 -6.822 10.866 -2.108 21.536 -4.6 32.59 -7.632l-0.004 0.018Zm-26.686 18.38c-1.446 -0.764 -2.938 -1.436 -4.468 -2.01 11.724 -1.71 23.296 -4.328 34.614 -7.836 0.076 0.872 0.096 1.748 0.06 2.624 -9.936 2.926 -20.016 5.334 -30.202 7.212l-0.004 0.01Zm14.06 -25.822c4.06 1.104 7.828 3.084 11.042 5.8 -3.88 1.052 -7.722 2.04 -11.526 2.966 -3.78 -3.548 -8.38 -6.106 -13.388 -7.444 -10.306 -3.472 -20.966 -5.786 -31.784 -6.898 0.708 -0.166 5.644 -1.304 5.886 -1.45 3.352 0.744 6.756 1.224 10.182 1.434 10.026 0.872 19.938 2.74 29.592 5.582l-0.004 0.01Zm-78.062 -4.816c-4.226 0.634 -8.936 2.24 -13 1.83 -3.262 -0.382 -6.114 -3.39 -8.658 -5.756 -3.328 -2.774 -6.848 -5.256 -10.318 -7.644 10.854 -2.638 21.906 -4.386 33.046 -5.226 2.934 0.6 5.866 1.328 8.8 2.186 6.738 2.142 13.212 5.04 19.298 8.638 -9.242 2.346 -18.812 4.306 -29.164 5.962l-0.004 0.01Zm-127.1142 41.822c-1.4 -0.938 -2.168 -1.4 -2.62 -3.164 -0.9976 -2.754 -1.6622 -5.62 -1.98 -8.532 0.6042 0.598 1.328 1.064 2.124 1.364 3.3568 1.628 6.9036 2.83 10.558 3.58 -0.1836 3.588 0.2486 7.18 1.278 10.622 -2.88 -0.094 -7.5 -2.792 -9.36 -3.87Zm11.312 3.416c-1.6 -5.364 -2.08 -12.024 0.652 -16.942 0.549 -0.916 1.2788 -1.708 2.1448 -2.332 0.866 -0.624 1.8502 -1.064 2.8922 -1.296 1.042 -0.23 2.12 -0.246 3.1684 -0.046 1.0482 0.2 2.0448 0.612 2.9286 1.21 0.819 0.498 1.6052 1.05 2.354 1.648 -1.67 0.076 -3.4 0.232 -5.094 0.464 -7.154 0.2 -9.628 9.97 -8.694 17.074l-0.352 0.22Zm12.024 12.294c-5.738 0.714 -9.516 -8.2 -9.828 -14.382 -0.288 -5.7 1.5 -12.456 7 -13.2 4.168 0 8.26 5.678 9.138 12.828 0.914 7.462 -1.974 14.22 -6.31 14.754Zm13.464 -8.982c-0.428 -3.53 -1.0538 -7.034 -1.874 -10.494 -1.7664 -5.8 -5.5954 -10.75 -10.764 -13.918 -1.1114 -0.742 -2.362 -1.25 -3.6758 -1.492s-2.6634 -0.216 -3.9664 0.08 -2.5322 0.852 -3.6128 1.638c-1.0806 0.786 -1.9902 1.784 -2.673 2.932 -1.0046 1.788 -1.668 3.746 -1.956 5.776 -3.4514 -0.732 -6.8014 -1.882 -9.976 -3.422 -0.7156 -0.282 -1.349 -0.74 -1.8426 -1.33 -0.4936 -0.592 -0.8316 -1.296 -0.9834 -2.05 -0.0422 -0.192 -0.1394 -0.366 -0.28 -0.502 0.0572 -3.632 0.6586 -7.234 1.784 -10.686 0.1594 -0.752 0.4892 -1.458 0.964 -2.062 1.1544 -1.044 2.591 -1.724 4.13 -1.954 15.382 -3.846 25.23 -12.91 40.702 -19.416 0.164 0.042 0.3362 0.042 0.5 0 12.314 -3.142 37.2722 -6.33 47.7002 0.924 6.2 4.432 12.748 9.818 17.776 13.696 0.512 0.536 1.124 0.968 1.8 1.274 -2.084 3 -2.086 6.87 -2.086 10.314 0 8.728 0.27 17.314 0.818 26.062 -11.028 -0.2 -28.432 -0.336 -42.98 -0.416 -0.682 -2.688 -0.48 -4.9 -3.08 -26.642 -0.33 -2.762 -0.614 -5.848 1 -7.94 40.448 0.4 42.088 0.766 41.2 -1.646 -0.668 -1.8 -9.296 -10.358 -20.718 -15.046 -7.73 -3.174 -15.71 -2.774 -23.816 -2.116 -17.2762 0.86 -24.1762 5.344 -38.6422 14.376 -2 1.246 -1.284 3.584 0.916 3.584l6.476 0.18c-2.648 1.644 -5.578 3.67 -5.918 6.4 -0.454 2.12 -0.454 4.312 0 6.432 0.0324 0.178 0.112 0.342 0.2306 0.478 0.1188 0.136 0.272 0.238 0.4434 0.294 10.024 3.27 13.696 16.74 14.6 20.948 0.0114 0.418 0.1272 0.826 0.3368 1.186 0.2096 0.362 0.5064 0.664 0.8632 0.882 1.476 0.776 -1.652 0.476 24.6002 0.616 0.328 0.978 0.786 1.908 1.36 2.764 -10.0442 -0.014 -20.1342 0.146 -29.3562 0.296Zm21.7022 -56.264c-0.754 4.82 -0.844 9.722 -0.27 14.568 -6.2602 -0.086 -12.8282 -0.21 -19.8202 -0.376 0.18 -3.568 1.07 -7.066 2.618 -10.286 5.5532 -2.306 11.4654 -3.628 17.4722 -3.906Zm11.54 14.684c-1.098 -5.022 -1.296 -10.198 -0.584 -15.29 4.936 -0.152 9.856 0.664 14.48 2.4 7.084 3.016 13.5 7.41 18.876 12.924 -3.596 0.26 -7.204 0.26 -10.8 0 0 0 -14.97 0.008 -21.972 -0.034Zm-2.048 -0.026h-3.048c-0.604 -5.016 -0.632 -10.082 -0.086 -15.104 0.864 -0.05 1.726 -0.092 2.586 -0.12 -0.678 5.07 -0.492 10.216 0.548 15.224Zm-5.044 -0.032 -2.698 -0.032c-0.608 -4.902 -0.508 -9.868 0.296 -14.742l2.276 -0.168c-0.52 4.97 -0.478 9.982 0.126 14.942Zm-26.5362 -0.472c-3.29 -0.082 -2.024 0 -2.72 -0.282 0.1634 -2.634 0.9012 -5.202 2.162 -7.52 0.8174 -0.426 1.6468 -0.838 2.488 -1.236 -1.1372 2.886 -1.7892 5.94 -1.93 9.038Zm-4.73 -0.12 -8.224 -0.228c2.9 -1.88 6.092 -3.944 9.486 -5.87 -0.7498 1.946 -1.176 4.004 -1.262 6.088v0.01Zm1.562 2.042c10.36 0.266 19.8 0.446 28.6282 0.548 -1 2.614 -1.222 5.462 -0.644 8.2 2.378 19.874 2.382 23.624 3 26.4 -25.0002 -0.132 -22.9822 0.304 -23.2602 -1.012 -0.918 -4.29 -4.716 -18.4 -15.388 -22.32 -0.3078 -1.724 -0.273 -3.49 0.102 -5.2 0.332 -2.644 4.962 -4.88 7.562 -6.626v0.01Zm35.5342 39.92c-0.79 -0.788 -1.41 -1.728 -1.824 -2.762 14.478 0.082 31.612 0.218 42.45 0.414 0.09 1.322 0.186 2.648 0.288 3.978 -11.91 -0.346 -20.134 -1.524 -40.914 -1.64v0.01Zm42.926 1.71c-0.104 -1.344 -0.202 -2.684 -0.292 -4.02l2.632 0.06c0.314 1.498 0.684 2.934 1.072 4.298 -1.13 -0.176 -2.27 -0.292 -3.412 -0.348v0.01Zm5.4 0.014c-1.314 -4.332 -1.964 -8.838 -1.932 -13.364 0.226 -10.89 11.08 -20.358 22.666 -13.6 -13.3 -4.266 -24.768 10.552 -19.962 26l-0.772 0.964Zm19.152 10.948c-8.87 1.1 -16.156 -7.048 -17.31 -16.42 -1.238 -10.076 4.512 -19.106 12.818 -20.126 8.306 -1.02 16.07 6.348 17.308 16.422 1.238 10.074 -4.508 19.094 -12.814 20.114l-0.002 0.01Zm27.312 -11.484c-0.458 -0.562 -0.216 -1.974 0.33 -3.26 1.156 -3.892 3.502 -7.326 6.708 -9.816 4.39 -2.84 10.674 -2.6 19.542 -2.858 0.198 -0.006 0.39 -0.07 0.552 -0.184 0.162 -0.116 0.286 -0.276 0.356 -0.462 0.764 0.516 1.566 0.976 2.4 1.372 0.262 0.27 0.52 0.532 0.8 0.772 -3.374 1.02 -7 2.436 -10.12 3.656 -6.63 2.164 -12.674 5.824 -17.664 10.698 -0.51 0.052 -0.562 0.034 -2.902 0.072l-0.002 0.01Zm55.972 -17.836c-2.928 1.942 -44.242 15.252 -48.938 16.8 3.248 -2.72 6.896 -4.924 10.812 -6.54 5.376 -2.286 10.896 -4.21 16.528 -5.764 3.36 -0.266 8.83 -2.4 21.664 -6.444 0.276 -0.088 0.544 -0.198 0.8 -0.332 -0.15 0.802 -0.442 1.572 -0.864 2.27l-0.002 0.01Z" stroke-width="1"></path><path id="Vector_2" fill="#000000" d="M214.752 344.656c-0.47 0.086 -0.912 0.288 -1.286 0.586 -0.374 0.3 -0.668 0.686 -0.856 1.126 -0.104 0.254 -0.158 0.526 -0.156 0.8 0.002 0.274 0.058 0.546 0.164 0.798 0.108 0.254 0.264 0.482 0.46 0.674 0.194 0.192 0.426 0.344 0.682 0.446 0.856 0.394 1.786 0.606 2.728 0.622 2.4 0.34 6.162 0.904 7.24 -1.286 0.214 -0.412 0.294 -0.878 0.234 -1.338 -0.062 -0.458 -0.262 -0.888 -0.576 -1.228 -1.786 -1.95 -7.442 -1.598 -8.634 -1.2Zm7.176 2.894c-0.4 0.694 -2.512 0.514 -6 0.074 -0.504 -0.028 -0.996 -0.164 -1.442 -0.4 -0.332 -1.148 6.374 -1.162 7.426 -0.022 0.058 0.068 0.108 0.12 0.016 0.348Z" stroke-width="1"></path><path id="Vector_3" fill="#000000" d="M290.238 345.892c0.8 0.66 1.6 1.292 2.4 1.862 1.752 1.146 3.632 2.086 5.6 2.8 7 2.578 18.344 3.448 22.814 -2.266 0.138 -0.174 0.224 -0.384 0.252 -0.604 0.028 -0.222 -0.006 -0.446 -0.096 -0.65 -0.09 -0.204 -0.232 -0.378 -0.414 -0.506 -0.182 -0.128 -0.396 -0.206 -0.618 -0.222 -9.816 -0.742 -19.49 -1.474 -29.3 -2.06 -0.194 -0.01 -0.388 0.042 -0.552 0.15 -0.164 0.106 -0.29 0.26 -0.36 0.442 -0.072 0.184 -0.082 0.384 -0.034 0.572 0.05 0.19 0.158 0.358 0.308 0.482Z" stroke-width="1"></path><path id="Vector_4" fill="#000000" d="M170.2918 371c-1 -8.172 -7.908 -10.71 -10.614 -4.752 -2.532 5.58 0.572 14.182 5.49 14.182 3.998 -0.01 5.648 -5.166 5.124 -9.43Zm-2.614 5.328c-2.022 4.452 -6.136 1.276 -6.8 -4.17 -0.2514 -1.72 -0.0344 -3.476 0.628 -5.084 0.172 -0.552 0.498 -1.044 0.9396 -1.418 0.4418 -0.374 0.981 -0.616 1.5544 -0.694 3.144 0 5.708 6.888 3.678 11.356v0.01Z" stroke-width="1"></path><path id="Vector_5" fill="#000000" d="M275.492 358.272c-5.824 0.718 -9.284 6.918 -8.52 13.138 1.324 10.772 12.878 14.504 18.134 6.248 5.208 -8.188 -0.706 -20.476 -9.614 -19.386Zm7.926 18.312c-0.534 0.958 -1.288 1.778 -2.2 2.39 -0.91 0.612 -1.952 1.002 -3.042 1.136 -1.09 0.134 -2.196 0.008 -3.228 -0.366s-1.96 -0.986 -2.712 -1.786c-6.216 -5.904 -3.27 -17.75 4.3 -17.75 6.864 -0.008 10.982 9.932 6.882 16.376Z" stroke-width="1"></path></g><g id="Group_2"><path id="Vector_6" fill="#000000" d="M38.2142 327.84c37.444 0.576 75.446 0.756 112.986 1.292 0.2652 0.008 0.5224 -0.09 0.7152 -0.272 0.1928 -0.184 0.3052 -0.434 0.3128 -0.7 0.0074 -0.266 -0.0908 -0.522 -0.2732 -0.716 -0.1822 -0.192 -0.4336 -0.304 -0.6988 -0.312 -37.552 -1.074 -75.59 -1.508 -113.052 -1.294 -0.2654 0 -0.5196 0.106 -0.7072 0.294 -0.1876 0.186 -0.2928 0.44 -0.2928 0.706 0.004 0.266 0.112 0.52 0.3008 0.706 0.1888 0.188 0.4432 0.294 0.7092 0.296Z" stroke-width="1"></path><path id="Vector_7" fill="#000000" d="m182.258 341.154 -106.764 3.018c-0.2654 0.004 -0.5182 0.112 -0.703 0.302 -0.185 0.19 -0.2868 0.446 -0.283 0.712 0.0036 0.264 0.1126 0.518 0.3026 0.702 0.1902 0.186 0.446 0.288 0.7114 0.284l106.8 -3.02c0.1312 -0.004 0.2606 -0.034 0.3806 -0.086 0.1198 -0.054 0.228 -0.132 0.3184 -0.226 0.0902 -0.096 0.1608 -0.208 0.2076 -0.332 0.0468 -0.122 0.069 -0.252 0.0654 -0.384 -0.0018 -0.132 -0.0302 -0.264 -0.0838 -0.384 -0.0534 -0.122 -0.131 -0.232 -0.2276 -0.322 -0.0968 -0.09 -0.2108 -0.16 -0.3354 -0.206 -0.1246 -0.046 -0.257 -0.066 -0.3892 -0.058Z" stroke-width="1"></path><path id="Vector_8" fill="#000000" d="m119.0438 364.232 -84.546 3.882c-0.1314 0.004 -0.2608 0.032 -0.381 0.084 -0.1202 0.054 -0.2288 0.13 -0.3196 0.224 -0.091 0.096 -0.1622 0.208 -0.2098 0.33 -0.0476 0.122 -0.0706 0.252 -0.0676 0.384 0.0028 0.132 0.0316 0.262 0.0846 0.382 0.0528 0.12 0.129 0.228 0.2238 0.318 0.095 0.092 0.2068 0.164 0.3292 0.21 0.1224 0.048 0.253 0.072 0.3844 0.068l84.6 -3.884c0.1312 -0.006 0.26 -0.038 0.3788 -0.092 0.119 -0.056 0.2258 -0.136 0.3144 -0.232 0.0886 -0.098 0.1572 -0.21 0.202 -0.334 0.0446 -0.124 0.0646 -0.254 0.0588 -0.386 -0.015 -0.264 -0.1338 -0.514 -0.3306 -0.692 -0.1968 -0.178 -0.456 -0.272 -0.7214 -0.262Z" stroke-width="1"></path></g></g><g id="boxes"><path id="Vector_9" fill="#000000" d="M268.2 251.984c-0.242 19.03 -0.71 35.136 -1.474 50.6 -9.8 3.13 -20.14 6.116 -31.516 9.1 -0.706 -17.39 -2.302 -34.732 -4.784 -51.958 3.088 -0.668 6.266 -1.654 9.268 -2.452 0.218 -0.058 0.41 -0.19 0.544 -0.37 0.136 -0.182 0.204 -0.404 0.196 -0.63 -9.8 0.6 -57.1316 0.13 -77.3296 2.932 -0.2784 0.066 -0.5222 0.234 -0.684 0.47 -1.466 2.24 1.2 51.052 1.824 53.876 0.0596 0.324 0.224 0.62 0.468 0.84 3.436 2.764 60.0336 0.456 68.1076 -0.216 0.196 0.078 0.41 0.09 0.612 0.036 14.756 -3.81 26.174 -7.244 34.564 -9.936 0.194 -0.062 0.364 -0.182 0.488 -0.344 0.124 -0.16 0.196 -0.356 0.206 -0.56 0.784 -15.706 1.264 -32.028 1.51 -51.368 0.002 -0.132 -0.022 -0.262 -0.072 -0.384 -0.048 -0.122 -0.122 -0.232 -0.214 -0.326s-0.2 -0.168 -0.322 -0.22c-0.12 -0.052 -0.25 -0.078 -0.382 -0.08 -0.13 -0.002 -0.262 0.024 -0.384 0.072 -0.12 0.05 -0.232 0.122 -0.326 0.214s-0.168 0.202 -0.22 0.322c-0.052 0.122 -0.078 0.25 -0.08 0.382Z" stroke-width="1"></path><g id="Group_3"><path id="Vector_10" fill="#000000" d="M292.846 200.536c-42.216 -5.5488 -39.74 -5.3648 -40.234 -4.9608 -38.812 2.1628 -77.397 7.3588 -115.3994 15.5428 -0.1284 0.028 -0.2502 0.08 -0.3582 0.154 -0.108 0.076 -0.2002 0.17 -0.2714 0.282 -0.0712 0.11 -0.1198 0.234 -0.1432 0.362 -0.0234 0.13 -0.021 0.262 0.0068 0.392 -0.144 0.652 2.508 40.456 2.782 49.64 0.0078 0.26 0.1166 0.506 0.3034 0.688 0.1866 0.18 0.4366 0.282 0.6966 0.282 3.33 0 55.2 -7.348 111.9274 -5.4 0.15 0.002 0.296 -0.028 0.432 -0.092 0.134 -0.062 0.252 -0.154 0.346 -0.268 13.016 -2.874 23.6 -5.39 35.75 -8.956 0.192 -0.056 0.362 -0.17 0.49 -0.324s0.206 -0.342 0.224 -0.54l4.312 -45.724c0.024 -0.258 -0.054 -0.512 -0.216 -0.712 -0.16 -0.202 -0.392 -0.332 -0.648 -0.366Zm-103.2334 22c-0.1224 -0.102 -0.2672 -0.174 -0.4226 -0.208 -0.1556 -0.034 -0.317 -0.032 -0.4708 0.01 -0.154 0.04 -0.296 0.116 -0.4144 0.222 -0.1184 0.108 -0.2096 0.24 -0.2662 0.39l-1.224 3.21c-1.754 -1.486 -2 -1.868 -2.678 -1.65 -0.124 0.038 -0.239 0.102 -0.338 0.188 -0.824 -6.616 -1.0742 -13.288 -0.748 -19.946 2.1174 -0.32 4.238 -0.63 6.362 -0.932 -0.262 6.258 -0.012 12.444 0.2 18.722v-0.006ZM141.2006 260.8c-0.476 -14.238 -2.106 -33.842 -2.75 -47.906 14.064 -3.024 28.264 -5.634 42.6 -7.834 -0.3366 7.466 0.0372 14.948 1.116 22.344v0.214c-0.0002 0.198 0.0582 0.392 0.168 0.556 0.1098 0.164 0.2662 0.294 0.4492 0.368 0.183 0.076 0.3842 0.096 0.5784 0.058 0.1942 -0.038 0.3726 -0.134 0.5124 -0.274 0.3748 -0.366 0.7034 -0.776 0.978 -1.222 1.942 1.642 1.942 1.73 2.412 1.73 0.2026 0 0.4004 -0.062 0.5672 -0.178 0.1668 -0.114 0.2948 -0.278 0.3668 -0.466l1.14 -2.988 0.63 0.708c0.1362 0.152 0.3166 0.262 0.5162 0.308 0.1998 0.048 0.4094 0.034 0.6004 -0.042 0.191 -0.076 0.354 -0.208 0.467 -0.38 0.113 -0.172 0.1704 -0.374 0.1644 -0.578 -0.2 -7.136 -0.6 -14.36 -0.274 -21.68 19.9994 -2.786 40.1494 -4.7648 60.3094 -5.9168 -1.418 19.2628 -1.624 38.5968 -0.622 57.8868 -36.716 -0.414 -73.423 1.354 -109.9294 5.292Z" stroke-width="1"></path><path id="Vector_11" fill="#000000" d="M246.56 240.426h-15.098c-0.244 -0.002 -0.48 0.086 -0.664 0.246 -0.184 0.16 -0.302 0.382 -0.336 0.622 -0.352 3.34 -0.5 6.698 -0.44 10.054 0 0.266 0.106 0.52 0.294 0.708 0.188 0.188 0.442 0.292 0.706 0.292 5.074 0 10.576 0.432 15.828 0 0.254 -0.02 0.492 -0.136 0.662 -0.326 0.17 -0.19 0.262 -0.436 0.256 -0.692l-0.216 -9.922c-0.004 -0.26 -0.11 -0.508 -0.296 -0.692 -0.184 -0.184 -0.434 -0.288 -0.696 -0.29Zm-14.528 9.928c0 -2.316 0.04 -5.316 0.318 -7.928h13.232l0.172 8c-4.48 0.278 -9.09 -0.028 -13.722 -0.072Z" stroke-width="1"></path></g><path id="Vector_12" fill="#000000" d="M237.356 76.4298c-20.638 -32.886 -19.296 -30.854 -19.6 -31.044 -19.9758 -12.462 -39.7818 -27.44608 -61.8418 -36.31408 -0.1368 -0.05484 -0.2842 -0.07872 -0.4314 -0.06994 -0.1472 0.00878 -0.2906 0.05 -0.42 0.12072 -0.1294 0.07072 -0.2416 0.16918 -0.3284 0.28834 -0.087 0.11916 -0.1464 0.25606 -0.1742 0.40088 -0.034 0.022 -26.046 24.00008 -39.028 36.86608 -29.034 28.768 -27.976 26.484 -27.846 27.506 1.934 15.24 4.264 30.146 7.128 45.566 0.0236 0.1342 0.0744 0.2622 0.1492 0.3762 0.0748 0.1138 0.1722 0.2112 0.2862 0.2862 0.1138 0.075 0.2418 0.1258 0.376 0.1494 0.1344 0.0236 0.272 0.0196 0.4046 -0.0118 12.8968 5.4552 25.3942 11.8102 37.4 19.018 -1.034 -3.224 -2.6 -8.322 -3.12 -10.284 -0.862 -3.236 -1.146 -3.862 1.726 -4.746 28.584 -8.8 79.0778 -18.57 79.0778 -18.57l26.016 -27.488c0.2 -0.0746 0.376 -0.2034 0.508 -0.372 0.132 -0.1688 0.214 -0.3708 0.238 -0.5834 0.022 -0.2126 -0.014 -0.4276 -0.104 -0.621 -0.092 -0.1932 -0.236 -0.3572 -0.416 -0.4736Zm-140.9458 40.94c-2.656 -14.494 -4.844 -28.566 -6.674 -42.926 21.138 -19.49 44.098 -44.266 65.052 -62.20008 4.512 9.20008 10.52 25.54408 14.188 35.09208l-72.566 70.034Zm74.482 -70.63c-3.566 -9.27 -9.618 -25.768 -14.218 -35.20008 21.188 8.82808 40.422 23.29808 59.8278 35.41608l17.568 28 -63.1778 -28.216Z" stroke-width="1"></path><g id="Group_4"><path id="Vector_13" fill="#000000" d="M306.44 203.856c-2.25 -52.1222 -8.626 -87.0002 -8.626 -90.1122 -0.028 -1.1736 -0.508 -2.2908 -1.342 -3.1172 -0.834 -0.8264 -1.956 -1.2976 -3.13 -1.3148 -19.66 -3.9148 -39.536 -6.653 -59.522 -8.2 -0.108 -0.0894 -0.234 -0.1548 -0.368 -0.1924 -0.136 -0.0376 -0.278 -0.0464 -0.416 -0.0256 -35.0728 5.3644 -69.7174 13.231 -103.6678 23.54 -0.1266 0.0384 -0.2444 0.1018 -0.3464 0.1862 -0.102 0.0844 -0.1862 0.1882 -0.2478 0.3054 -0.0616 0.1172 -0.0994 0.2454 -0.111 0.3774 -0.0116 0.1318 0.0032 0.2648 0.0432 0.391 8.6 27.09 13.826 55.978 20.254 83.4002 0.03 0.128 0.0848 0.248 0.1614 0.356 0.0766 0.106 0.1736 0.196 0.2852 0.266 0.1116 0.068 0.2358 0.116 0.3654 0.136 0.1296 0.022 0.2622 0.018 0.39 -0.012 0.128 -0.03 0.2488 -0.086 0.3554 -0.162 0.1068 -0.076 0.1974 -0.174 0.2666 -0.284 0.0692 -0.112 0.1158 -0.236 0.1372 -0.366 0.0212 -0.13 0.0168 -0.262 -0.0132 -0.39 -6.344 -27.0602 -11.546 -55.6862 -20 -82.5802 33.2784 -10.0554 67.2218 -17.7604 101.5798 -23.058 9.28 30.088 13.184 61.976 16.962 92.824 0.04 0.2564 0.178 0.4872 0.386 0.6438 0.206 0.1564 0.466 0.2262 0.724 0.1944 0.258 -0.0316 0.494 -0.1622 0.656 -0.3642 0.164 -0.202 0.242 -0.4596 0.218 -0.718 -3.756 -30.672 -7.636 -62.372 -16.8 -92.4 19.646 1.5662 39.184 4.2754 58.514 8.114 0.676 -0.0184 1.332 0.2276 1.83 0.6852 0.498 0.4578 0.798 1.0916 0.836 1.7668 0.028 3.044 6.35 38.932 8.584 89.2002 -3.854 0.14 -7.714 -0.088 -11.526 -0.68 -0.262 -0.042 -0.53 0.022 -0.744 0.178 -0.214 0.156 -0.358 0.392 -0.4 0.654 -0.042 0.262 0.024 0.53 0.18 0.744 0.156 0.214 0.39 0.358 0.652 0.4 2.714 0.426 5.454 0.668 8.2 0.724 -2.858 1.054 -5.77 1.958 -8.722 2.71 -0.128 0.032 -0.248 0.088 -0.352 0.166 -0.106 0.078 -0.196 0.176 -0.264 0.29 -0.136 0.226 -0.176 0.5 -0.112 0.756 0.064 0.258 0.228 0.48 0.454 0.616 0.228 0.138 0.5 0.178 0.758 0.114 4.45 -1.158 8.816 -2.612 13.07 -4.356 0.244 -0.15 0.446 -0.356 0.594 -0.6 0.148 -0.246 0.234 -0.522 0.254 -0.806Z" stroke-width="1"></path><path id="Vector_14" fill="#000000" d="M160.286 185.9998c-0.432 -0.216 -0.646 0 -0.862 0.432l-3.882 8.2 4.248 -0.708 1.358 9.1222 3.236 -0.648 -1.714 -8.9522 4.518 -0.754c-5.962 -5.97 -6.614 -6.692 -6.902 -6.692Z" stroke-width="1"></path><path id="Vector_15" fill="#000000" d="M213.168 115.1414c4.022 -1.0596 8.094 -1.9166 12.2 -2.568 0.256 -0.0496 0.48 -0.196 0.63 -0.4084 0.148 -0.2124 0.208 -0.4742 0.168 -0.7302 -0.042 -0.2562 -0.18 -0.4864 -0.388 -0.6422 -0.206 -0.1558 -0.466 -0.2252 -0.724 -0.1932 -4.174 0.6582 -8.312 1.526 -12.4 2.6 -0.256 0.0682 -0.476 0.2358 -0.61 0.4662 -0.134 0.2302 -0.172 0.5042 -0.104 0.7618 0.068 0.2576 0.236 0.4774 0.466 0.6114 0.232 0.1338 0.506 0.1708 0.762 0.1026Z" stroke-width="1"></path><path id="Vector_16" fill="#000000" d="M226.52 115.352c-3.698 0.74 -7.894 1.702 -13.2 3.028 -0.258 0.0642 -0.478 0.228 -0.616 0.4556 -0.136 0.2274 -0.176 0.4998 -0.112 0.7574 0.064 0.2576 0.228 0.479 0.454 0.6158 0.228 0.1366 0.5 0.1774 0.758 0.1132 5.278 -1.32 9.444 -2.276 13.112 -3.01 0.256 -0.057 0.478 -0.2118 0.622 -0.4314 0.142 -0.2194 0.192 -0.4862 0.14 -0.7426 -0.05 -0.2566 -0.202 -0.4828 -0.418 -0.6296 -0.216 -0.147 -0.482 -0.2032 -0.74 -0.1564Z" stroke-width="1"></path><path id="Vector_17" fill="#000000" d="m221.548 121.6098 -7.116 1.51c-0.134 0.0212 -0.262 0.0696 -0.376 0.142 -0.116 0.0724 -0.214 0.1674 -0.292 0.2792 -0.076 0.1116 -0.13 0.238 -0.156 0.371 -0.026 0.133 -0.026 0.27 0.002 0.4026 0.028 0.1328 0.084 0.2584 0.162 0.3692 0.078 0.1108 0.178 0.2046 0.294 0.2756 0.114 0.071 0.244 0.1178 0.378 0.1374 0.134 0.0196 0.27 0.0118 0.402 -0.023l7.116 -1.51c0.134 -0.0212 0.262 -0.0696 0.376 -0.142 0.116 -0.0724 0.214 -0.1674 0.292 -0.2792 0.076 -0.1118 0.13 -0.238 0.156 -0.371 0.026 -0.133 0.026 -0.27 -0.002 -0.4026 -0.028 -0.1328 -0.084 -0.2584 -0.162 -0.3692 -0.078 -0.1108 -0.178 -0.2046 -0.294 -0.2756 -0.114 -0.071 -0.244 -0.1178 -0.378 -0.1374 -0.134 -0.0198 -0.27 -0.0118 -0.402 0.023Z" stroke-width="1"></path></g></g></g></svg>