<svg xmlns="http://www.w3.org/2000/svg" fill="none" viewBox="0 0 400 400" id="Emptystates-Add-Product--Streamline-Milano.svg" height="400" width="400"><desc>Emptystates Add Product Streamline Illustration: https://streamlinehq.com</desc><g id="emptystates-add-product--e-commerce-emptystates-add-product"><g id="mobile"><path id="vector" fill="#000000" d="M163.842 351.712c-6.958 0.09 -12.542 5.824 -12.452 12.78 0.09 6.956 5.836 12.566 12.78 12.45 6.958 -0.09 12.542 -5.824 12.452 -12.78 -0.092 -6.956 -5.84 -12.608 -12.78 -12.45Z" stroke-width="1"></path><path id="vector_2" fill="#000000" d="M244.992 295.322c-0.328 11.16 -0.706 21.53 -1.124 30.848 0.062 4.77 -3.768 8.7 -8.538 8.762 -0.09 0 -0.18 0.014 -0.266 0.04 -23.51 6.754 -118.32 8.128 -142.858 1.862 -0.082 -0.022 -0.182 -0.032 -0.266 -0.032 -4.732 0.024 -8.7 -3.768 -8.764 -8.59 -0.038 -0.562 -3.796 -57.206 -6.586 -142.334 -2.79 -85.082 2.716 -149.394 2.776 -150.134 -0.062 -4.574 3.502 -8.688 8.66 -8.772 0.286 -0.04 29.102 -3.926 74.444 -5.034 49.112 -1.192 68.396 3.104 68.584 3.148 0.342 0.082 3.56 -0.276 6.388 2.48 1.654 1.612 2.582 3.774 2.618 6.176 0.688 6.43 1.312 13.37 1.874 20.73 6.072 -0.706 12.16 -1.276 18.256 -1.716 -1.172 -23.178 -2.23 -31.202 -2.248 -31.302 -0.076 -5.87192 -4.892 -10.57192 -10.616 -10.49792 -0.604 -0.096 -15.598 -2.37 -87.232 -1.436 -78.458 1.022 -82.792 3.662 -91.464 3.778 -9.666 0.128 -19.482 5.11 -20.572 15.41792 -2.5 23.6 -0.07 300.002 4.704 344.09 0.146 11.272 14.34 15.938 23.736 15.756 19.552 2.298 66.334 2.514 87.528 2.406 65 -0.336 87.976 -4.668 88.022 -4.694 5.872 -0.076 10.468 -4.916 10.51 -10.746 0.002 -0.342 0.658 -24.326 0.84 -82.368 -6.124 0.81 -12.264 1.53 -18.408 2.166l0.002 -0.004Zm-190.234 77.372c-5.022 -52.342 -6.982 -321.98 -4.78 -343.68 0.838 -8.252 8.018 -12.36792 15.162 -13.43592 -2.562 2.066 -3.942 5.10192 -3.976 8.39192 -0.004 0.432 -1.492 44.48 -0.11 158.974 1.38 114.486 4.692 194.34 4.724 195.106 0.038 2.844 1.186 5.51 3.224 7.496 -9.374 -2.074 -14.158 -6.364 -14.244 -12.852Zm109.246 7.25c-8.516 0 -15.5 -6.872 -15.612 -15.412 -0.112 -8.612 6.802 -15.708 15.412 -15.82 8.588 -0.11 15.706 6.8 15.818 15.412 0.112 8.676 -6.908 15.82 -15.618 15.82Z" stroke-width="1"></path></g><g id="cart"><path id="vector_3" fill="#000000" d="M287.68 303.354c-1.562 -8.044 -10.622 -8.658 -13.174 -4.406 -1.83 3.048 -2.39 6.778 -1.536 10.23 1.966 7.938 10.698 5.088 13.216 1.522 1.434 -2.032 1.994 -4.778 1.494 -7.346Zm-12.768 5.344c-0.728 -2.944 -0.252 -6.122 1.308 -8.72 1.838 -3.064 5.278 -0.568 6.348 3.15 1.378 4.782 -1.9 9.446 -4.51 9.236 -1.58 -0.13 -2.718 -1.934 -3.146 -3.666Z" stroke-width="1"></path><path id="vector_4" fill="#000000" d="M221.476 315.158c-3.862 0 -6.356 -0.842 -10.104 -2.184 -74.736 -26.758 -72.97 -25.574 -75.85 -28.388 -4.862 -4.752 -3.386 -12.178 -6.074 -17.82 -0.238 -0.498 -0.026 -1.096 0.472 -1.334 0.496 -0.236 1.096 -0.026 1.334 0.472 2.706 5.68 1.534 13.212 5.666 17.25 2.41 2.354 0.058 1.06 75.126 27.936 5.9 2.112 7.674 2.436 14.542 1.726 18.546 -1.912 37.148 -5.07 55.288 -9.388 1.294 -0.308 2.548 -0.714 2.966 -1.596 0.796 -1.686 -1.868 -3.492 -3.586 -4.228 -3.788 -1.622 -7.698 -3.104 -11.624 -4.406 -0.524 -0.174 -0.808 -0.74 -0.634 -1.264 0.174 -0.524 0.738 -0.81 1.264 -0.634 3.978 1.32 7.94 2.822 11.78 4.464 2.998 1.284 5.998 3.974 4.608 6.92 -0.886 1.872 -3.114 2.402 -4.312 2.686 -27.434 6.53 -55.194 9.782 -60.864 9.782l0.002 0.006Z" stroke-width="1"></path><path id="vector_5" fill="#000000" d="M149.484 292.994c-1.542 -7.936 -10.492 -8.632 -13.052 -4.362 -1.812 3.018 -2.366 6.71 -1.518 10.128 0.55 2.228 2.16 4.908 4.88 5.13 2.39 0.188 6.408 -1.066 8.212 -3.62 1.42 -2.012 1.974 -4.732 1.48 -7.278l-0.002 0.002Zm-12.63 5.286c-0.72 -2.91 -0.25 -6.05 1.292 -8.62 1.88 -3.136 5.278 -0.31 6.262 3.112 1.364 4.736 -1.888 9.338 -4.452 9.124 -1.556 -0.126 -2.68 -1.908 -3.102 -3.616Z" stroke-width="1"></path><path id="vector_6" fill="#000000" d="M222.172 319.684c-1.75 -8.996 -11.88 -9.856 -14.8 -4.992 -2.074 3.454 -2.708 7.68 -1.738 11.59 2.184 8.814 11.864 5.926 14.856 1.694 1.618 -2.292 2.246 -5.392 1.682 -8.292Zm-14.598 6.12c-0.842 -3.402 -0.292 -7.076 1.512 -10.082 3.45 -5.752 11.56 4.59 5.998 12.156 -2.864 3.89 -6.412 2.36 -7.508 -2.076l-0.002 0.002Z" stroke-width="1"></path><path id="vector_7" fill="#000000" d="M273.38 195.8278c-4.566 3.51 -7.69 4.6722 -15.004 5.8102 -15.544 2.424 -31.35 3.156 -47.05 2.178 -4.43 -0.278 -5.678 -0.862 -8.666 -3.686 -5.188 -4.9042 -10.084 -10.1142 -14.664 -15.5902 -22.864 -0.152 -45.796 1.306 -69.438 4.4 -5.29 -5.63 -11.084 -10.84 -17.244 -15.5 -2.676 -2.016 -5.732 -3.456 -8.282 0.106 -2.03 2.84 -1.366 7.346 2.216 9.014 1.912 0.89 3.974 0.568 5.384 -1.024 4.758 4.688 9.674 9.276 14.658 13.684 -0.43 23.0742 3.522 46.9142 10.562 69.0862 0.076 0.24 0.24 0.442 0.458 0.566 17.28 9.876 36.968 18.046 59.598 24.702 3.744 1.484 34.068 8.762 35.806 8.762 2.288 0 37.364 -2.532 71.772 -8.938 0.348 -0.064 0.636 -0.308 0.756 -0.64 4.462 -12.292 8.178 -25.196 11.07 -38.614 2.152 -7.074 6.528 -39.934 6.252 -43.106 -0.296 -1.772 -17.424 -6.558 -38.186 -11.2122l0.002 0.002Zm-175.012 -15.012c-1.64 0.814 -3.87 -0.644 -4.308 -2.45 -0.918 -3.768 2.474 -6.23 4.562 -4.35 1.756 1.582 2.042 5.66 -0.254 6.8Zm184.608 30.6202c-0.298 6.424 -0.756 12.848 -1.37 19.258 -10.328 1.882 -20.542 3.408 -30.538 4.564 0.138 -7.012 0.1 -14.034 -0.112 -21.032 10.818 -0.774 21.5 -1.708 32.02 -2.79Zm-31.952 25.84c9.944 -1.144 20.106 -2.654 30.378 -4.512 -0.736 7.292 -1.672 14.57 -2.81 21.814 -9.696 1.864 -19.286 3.37 -28.662 4.504 0.55 -7.258 0.916 -14.532 1.094 -21.806Zm27.232 19.402c-0.946 5.828 -2.022 11.632 -3.226 17.408 -9.152 1.876 -18.2 3.378 -27.036 4.498 0.712 -5.806 1.304 -11.632 1.776 -17.466 9.32 -1.118 18.85 -2.604 28.486 -4.44Zm-62.866 4.888c-0.904 -7.236 -1.442 -14.492 -1.61 -21.708 11.274 -0.218 23.086 -1.012 35.236 -2.356 -0.182 7.278 -0.554 14.556 -1.112 21.818 -11.216 1.296 -22.114 2.052 -32.514 2.246Zm32.354 -0.214c-0.478 5.842 -1.078 11.672 -1.796 17.484 -9.382 1.126 -18.514 1.814 -27.268 2.04 -1.242 -5.736 -2.252 -11.518 -3.03 -17.314 10.276 -0.198 21.03 -0.944 32.094 -2.21Zm-33.164 -45.148c11.578 -0.444 23.048 -1.06 34.378 -1.848 0.212 7.034 0.246 14.082 0.102 21.13 -12.18 1.354 -24.022 2.154 -35.318 2.374 -0.1 -7.282 0.178 -14.52 0.838 -21.656Zm1.976 64.308c-6.978 -1.828 -19.326 -5.176 -33.274 -9.488 -0.992 -5.37 -1.794 -10.762 -2.454 -16.166 11.286 3.152 22.536 6.014 32.764 8.412 0.758 5.772 1.748 11.528 2.962 17.244l0.002 -0.002Zm-35.43 -10.16c-9.362 -2.928 -19.344 -6.268 -28.844 -9.858 -1.036 -5.052 -1.958 -10.13 -2.766 -15.226 9.266 3.14 19.236 6.18 29.224 9.002 0.642 5.372 1.422 10.738 2.384 16.082h0.002Zm-0.552 -17.642c-0.802 -6.954 -1.376 -13.918 -1.83 -20.864 11.376 2.948 22.724 5.624 33.032 7.86 0.16 7.13 0.678 14.296 1.548 21.446 -10.252 -2.414 -21.498 -5.286 -32.75 -8.442Zm32.014 -36.67c-0.66 7.124 -0.938 14.346 -0.846 21.612 -10.356 -2.254 -21.742 -4.944 -33.13 -7.906 -0.444 -7.212 -0.764 -14.398 -1.074 -21.524 11.872 2.9 23.526 5.498 35.05 7.818Zm-34.094 36.084c-10.05 -2.85 -20.058 -5.918 -29.32 -9.082 -1.024 -6.75 -1.846 -13.532 -2.464 -20.33 9.472 3.002 19.722 5.91 30 8.602 0.442 6.924 1.004 13.87 1.786 20.808l-0.002 0.002Zm-2.978 -44.396c0.308 7.112 0.624 14.286 1.06 21.488 -10.324 -2.712 -20.598 -5.64 -30.058 -8.658 -0.584 -6.91 -0.96 -13.836 -1.124 -20.7662 10.232 2.8642 20.254 5.5022 30.122 7.9362Zm-59.418 -18.4322c-0.862 0.332 -0.668 1.216 -0.736 3.312 -4.654 -4.154 -9.24 -8.46 -13.686 -12.852 0.32 -0.898 0.448 -1.918 0.232 -3.33 6.864 5.376 14.392 12.792 14.19 12.87Zm1.302 2.27c8.828 2.712 17.476 5.262 25.982 7.66 0.15 6.8982 0.508 13.7922 1.074 20.6702 -10.386 -3.37 -19.694 -6.84 -26.874 -10.238 -0.354 -6.128 -0.416 -12.1742 -0.182 -18.0922Zm0.328 20.3662c7.294 3.37 16.598 6.796 26.914 10.122 0.6 6.774 1.4 13.53 2.4 20.256 -10.396 -3.614 -19.758 -7.336 -27.048 -10.99 -1.064 -6.514 -1.822 -12.994 -2.264 -19.388h-0.002Zm2.674 21.82c7.398 3.598 16.712 7.25 26.978 10.788 0.786 5.056 1.682 10.096 2.692 15.114 -10.034 -3.864 -19.42 -7.996 -26.83 -12.196 -1.094 -4.57 -2.042 -9.146 -2.84 -13.706Zm7.242 29.58c-1.386 -4.392 -2.636 -8.804 -3.75 -13.222 7.52 4.098 16.81 8.114 26.654 11.864 0.99 4.746 2.08 9.472 3.268 14.172 -9.304 -3.904 -18.01 -8.168 -26.17 -12.814h-0.002Zm28.478 13.77c-1.22 -4.738 -2.34 -9.502 -3.356 -14.29 9.528 3.564 19.478 6.872 28.772 9.764 0.928 4.888 2.018 9.756 3.3 14.596 -10.16 -3.04 -19.714 -6.39 -28.716 -10.07Zm30.966 10.736c-1.314 -4.834 -2.432 -9.702 -3.384 -14.59 14.25 4.384 26.708 7.738 33.33 9.458 1.002 4.484 2.142 8.94 3.42 13.354 -11.792 -2.428 -22.896 -5.164 -33.366 -8.222Zm56.626 6.6c-6.928 0.704 -13.972 1.314 -21.116 1.826 -1.3 -4.426 -2.462 -8.898 -3.48 -13.398 8.542 -0.234 17.44 -0.902 26.57 -1.986 -0.584 4.532 -1.242 9.052 -1.974 13.558Zm2.06 -0.212c0.728 -4.516 1.382 -9.05 1.962 -13.594 8.774 -1.096 17.754 -2.572 26.84 -4.412 -1.066 4.976 -2.226 9.928 -3.482 14.854 -8.24 1.196 -16.688 2.25 -25.32 3.152Zm46.782 -6.684c-6.292 1.164 -12.736 2.238 -19.318 3.218 1.254 -4.966 2.414 -9.96 3.478 -14.978 7.066 -1.472 14.192 -3.164 21.326 -5.066 -1.666 5.702 -3.496 11.312 -5.484 16.826h-0.002Zm6.13 -19.07c-7.2 1.942 -14.39 3.67 -21.524 5.172 1.188 -5.762 2.25 -11.554 3.184 -17.368 7.516 -1.47 15.092 -3.152 22.682 -5.042 -1.288 5.828 -2.734 11.574 -4.34 17.236l-0.002 0.002Zm4.814 -19.416c-7.634 1.918 -15.258 3.626 -22.822 5.118 1.122 -7.234 2.044 -14.5 2.77 -21.782 7.918 -1.466 15.898 -3.142 23.89 -5.016 -1.04 7.334 -2.32 14.564 -3.838 21.68Zm4.132 -23.804c-8.022 1.894 -16.034 3.586 -23.984 5.068 0.598 -6.348 1.046 -12.72 1.336 -19.082 0 0 16.442 -1.838 24.492 -2.894 -0.474 5.69 -1.09 11.328 -1.844 16.908Z" stroke-width="1"></path></g><g id="elements"><path id="vector_8" fill="#000000" d="M298.18 48.0782c-0.806 0 -1.294 -0.924 -0.806 -1.59 7.902 -10.802 16.53 -21.252 25.64 -31.06402 0.376 -0.404 1.008 -0.428 1.414 -0.052 0.404 0.376 0.428 1.008 0.052 1.414 -9.058 9.75202 -17.634 20.14402 -25.492 30.88202 -0.196 0.268 -0.5 0.41 -0.808 0.41Z" stroke-width="1"></path><path id="vector_9" fill="#000000" d="M325.466 79.3762c8.59 -3.54 17.09 -7.566 25.266 -11.966 0.486 -0.264 1.094 -0.08 1.354 0.406 0.262 0.486 0.08 1.092 -0.406 1.354 -8.236 4.432 -16.8 8.488 -25.452 12.054 -1.24 0.516 -1.968 -1.35 -0.762 -1.848Z" stroke-width="1"></path><path id="vector_10" fill="#000000" d="M351.958 186.086c-0.866 0 -9.86 -4.458 -26.324 -8.704 -0.536 -0.138 -0.856 -0.684 -0.718 -1.218 0.138 -0.536 0.686 -0.854 1.218 -0.718 8.89 2.292 17.708 5.224 26.206 8.714 1.01 0.414 0.708 1.926 -0.382 1.926Z" stroke-width="1"></path><path id="vector_11" fill="#000000" d="M163.882 51.518c-0.308 0 -0.61 -0.142 -0.806 -0.408l-16.328 -22.216c-0.328 -0.444 -0.232 -1.07 0.214 -1.398 0.444 -0.328 1.072 -0.232 1.398 0.214l16.328 22.216c0.488 0.664 0.002 1.592 -0.806 1.592Z" stroke-width="1"></path><path id="vector_12" fill="#000000" d="M145.898 97.7542c-1.734 0 -12.314 -1.486 -22.454 -4.51 -0.53 -0.158 -0.83 -0.714 -0.672 -1.244 0.158 -0.53 0.716 -0.83 1.244 -0.672 7.16 2.136 14.558 3.626 21.988 4.432 1.246 0.136 1.148 1.994 -0.106 1.994Z" stroke-width="1"></path><path id="vector_13" fill="#000000" d="M99.088 123.5282c14.394 -2.44 29.092 -3.814 43.688 -4.082 0.538 0.004 1.008 0.43 1.018 0.982 0.01 0.552 -0.43 1.008 -0.982 1.018 -14.496 0.266 -29.094 1.63 -43.39 4.054 -1.312 0.228 -1.63 -1.752 -0.334 -1.972Z" stroke-width="1"></path><path id="vector_14" fill="#000000" d="M131.416 178.0842c-1 0 -1.38 -1.312 -0.534 -1.846l21.836 -13.766c0.468 -0.294 1.084 -0.154 1.378 0.312 0.294 0.468 0.154 1.084 -0.312 1.378 -22.276 14.04 -21.918 13.922 -22.368 13.922Z" stroke-width="1"></path></g><g id="parcel"><path id="vector_15" fill="#000000" d="M303.454 94.3518c-7.29 -9.412 -16.932 -23.212 -34.324 -39.66 -2.98 -2.816 -4.372 -3.26 -8.302 -2.986 -28.896 2.034 -57.678 7.066 -85.546 14.954 -2.392 0.674 -2.57 1.886 -2.97 2.994 -5.438 15.036 -6.312 31.966 -7.804 49.026 -1.16 13.26 -2.518 28.286 4.612 40.616 8.892 15.376 19.946 29.362 32.854 41.5642 3.138 2.966 4.6 3.666 9.292 3.958 15.784 0.984 31.696 0.24 47.266 -2.188 9.18 -1.43 12.002 -2.9462 18.9 -8.8202 21.448 -18.266 36.8 -38.776 45.67 -60.998 0.622 -0.666 1.148 -1.71 1.138 -3.34 -0.05 -8.352 -14.58 -27.11 -20.786 -35.12Zm-41.736 -40.7c-7.936 7.648 -19.408 21.24 -22.606 31.61 -18.676 -9.26 -38.574 -15.242 -59.224 -17.806 29.138 -7.93 60.236 -12.646 81.83 -13.804Zm-86.482 15.286c2.28 0.488 30.42 1.74 63.896 18.57 7.984 4.014 8.948 6.876 8.852 12.418 -0.352 20.29 -10.124 37.062 -21.034 53.854 -3.046 -1.264 -5.65 -3.536 -7.878 -5.6 -11.304 -10.47 -21.202 -23.47 -29.416 -38.636 -3.222 -5.948 -18.6 -36.098 -14.42 -40.606Zm137.858 79.928c-5.23 2.676 -11.006 4.946 -17.128 6.894 -4.254 10.294 -11 19.32 -17.576 28.066 3.872 -1.248 7.684 -2.684 11.414 -4.348 -4.234 4.38 -8.792 8.652 -13.67 12.806 -6.63 5.648 -9.124 6.998 -17.912 8.3662 -15.458 2.412 -31.216 3.14 -46.834 2.168 -4.196 -0.26 -5.226 -0.752 -8.042 -3.4142 -12.768 -12.07 -23.702 -25.902 -32.496 -41.112 -7.71 -13.33 -5.162 -29.782 -3.75 -46.45 1.068 -12.614 2.138 -25.602 5.786 -37.58 1.876 11.702 13.454 33.358 15.01 36.234 8.32 15.362 18.352 28.534 29.816 39.152 7.03 6.51 10.696 7.614 19.402 7.36 30.664 -0.882 60.736 -8.952 83.002 -22.214 -2.034 4.774 -4.378 9.466 -7.024 14.074l0.002 -0.002Zm-76.038 6.142c-2.698 0.078 -5.524 0.088 -8.144 -0.578 8.244 -12.71 15.804 -25.442 19.198 -39.756 23.03 10.038 47.378 15.932 72.418 17.53 -22.112 13.61 -52.474 21.912 -83.472 22.804Zm84.88 -24.722c-25.384 -1.468 -50.07 -7.388 -73.384 -17.6 0.852 -4.098 1.356 -8.328 1.432 -12.726 0.104 -6.208 -1.306 -9.752 -9.062 -13.784 3.122 -10.566 15.448 -24.804 23.494 -32.33 1.266 0.364 2.324 1.34 3.338 2.296 11.066 10.464 21.526 22.45 31.974 36.636 3.51 4.774 24.76 30.932 22.208 37.508Z" stroke-width="1"></path><path id="vector_16" fill="#000000" d="M230.476 191.7816c14.788 -0.962 30.092 -2.692 44.662 -6.958 6.726 -8.968 13.77 -18.026 18.32 -28.288 -15.954 4.792 -33.98 7.556 -50.582 9.794 -3.156 8.926 -7.314 17.464 -12.4 25.452Z" stroke-width="1"></path><path id="vector_17" fill="#000000" d="M240.646 166.63c-5.75 0.774 -11.678 1.554 -17.408 0.816 1.108 -3.208 2.152 -6.434 3.13 -9.676 0.16 -0.528 -0.138 -1.086 -0.668 -1.246 -0.526 -0.16 -1.086 0.14 -1.246 0.668 -3.994 13.222 -9.088 26.502 -15.998 40.46 -0.588 1.188 1.208 2.064 1.792 0.888 0.96 -1.94 1.896 -3.892 2.808 -5.858 4.876 -0.218 9.872 -0.444 14.938 -0.748 5.178 -7.922 9.422 -16.414 12.65 -25.306l0.002 0.002Z" stroke-width="1"></path><path id="vector_18" fill="#000000" d="M188.388 174.1936c-4.712 -5.476 -9.208 -11.246 -13.362 -17.146 -5.058 -7.186 -5.462 -9.978 -4.552 -17.332l4.27 -34.466c0.118 -0.956 1.4 -1.212 1.868 -0.358 0.124 0.226 12.446 22.63 18.932 32.856 1.6 2.52 1.738 3.508 1.168 6.09l-6.592 29.918c-0.178 0.802 -1.196 1.06 -1.732 0.438Zm-12.038 -65.644c-4.362 35.196 -4.63 35.45 -4.074 38.57 0.562 3.154 2.396 5.952 4.384 8.776 3.732 5.302 7.744 10.498 11.94 15.466 6.464 -29.334 6.528 -29.05 6.396 -30.076 -0.258 -1.996 -0.516 -0.052 -18.648 -32.738l0.002 0.002Z" stroke-width="1"></path><path id="vector_19" fill="#000000" d="M190.038 142.5336c-0.292 0 -0.584 -0.128 -0.78 -0.374 -4.496 -5.606 -8.192 -11.806 -10.986 -18.426 -0.214 -0.508 0.024 -1.096 0.532 -1.31 0.51 -0.216 1.096 0.024 1.31 0.532 2.722 6.45 6.322 12.49 10.704 17.954 0.528 0.658 0.05 1.624 -0.78 1.624Z" stroke-width="1"></path><path id="vector_20" fill="#000000" d="M187.468 149.552c-0.292 0 -0.582 -0.128 -0.78 -0.374 -4.166 -5.188 -7.77 -10.846 -10.708 -16.816 -0.244 -0.496 -0.04 -1.094 0.456 -1.338s1.094 -0.04 1.338 0.456c2.874 5.84 6.396 11.374 10.472 16.446 0.526 0.656 0.056 1.626 -0.778 1.626Z" stroke-width="1"></path><path id="vector_21" fill="#000000" d="M186.57 157.37c-0.278 0 -0.556 -0.116 -0.754 -0.342 -4.048 -4.634 -7.642 -9.698 -10.682 -15.052 -0.272 -0.48 -0.104 -1.09 0.376 -1.364s1.09 -0.104 1.364 0.376c2.974 5.238 6.488 10.19 10.448 14.724 0.568 0.65 0.094 1.658 -0.752 1.658Z" stroke-width="1"></path><path id="vector_22" fill="#000000" d="M204.536 182.4858c-0.26 0 -0.518 -0.0998 -0.714 -0.2998 -2.722 -2.774 -5.254 -5.776 -7.53 -8.922 -0.324 -0.448 -0.224 -1.0722 0.224 -1.3962 0.448 -0.324 1.072 -0.224 1.396 0.224 2.216 3.064 4.686 5.99 7.336 8.694 0.62 0.632 0.168 1.7 -0.712 1.7Z" stroke-width="1"></path><path id="vector_23" fill="#000000" d="M202.996 188.4956c-0.272 0 -0.542 -0.11 -0.74 -0.326 -2.798 -3.068 -5.32 -6.418 -7.494 -9.958 -0.29 -0.47 -0.142 -1.086 0.328 -1.376 0.468 -0.288 1.086 -0.142 1.376 0.328 2.108 3.432 4.554 6.682 7.268 9.658 0.586 0.644 0.122 1.674 -0.738 1.674Z" stroke-width="1"></path><g id="group"><path id="vector_24" fill="#000000" d="M204.118 159.0696c-0.644 1.734 -0.528 3.59 0.304 4.844 0.868 1.308 2.702 1.904 3.924 1.27 0.888 -0.458 1.41 -1.404 1.69 -2.116 2.114 -5.348 -3.946 -9.316 -5.918 -3.998Z" stroke-width="1"></path><path id="vector_25" fill="#000000" d="M215.86 158.8158c-0.376 -4.618 -4.77 -7.58 -8.694 -8.378 -7.354 -1.504 -10.782 8.89 -7.582 15.552 1.26 2.624 3.99 5.208 7.23 5.208 3.704 0 6.152 -3.124 7.696 -6.524 0.766 -1.686 1.526 -3.7 1.35 -5.858Zm-3.962 4.988c-2.902 7.34 -12.652 2.638 -9.654 -5.43 1.146 -3.088 3.134 -3.71 4.218 -3.804 3.94 -0.346 7.434 4.172 5.436 9.234Z" stroke-width="1"></path></g></g></g></svg>