<svg xmlns="http://www.w3.org/2000/svg" fill="none" viewBox="0 0 400 400" id="Special-Day-Promo--Streamline-Milano.svg" height="400" width="400"><desc>Special Day Promo Streamline Illustration: https://streamlinehq.com</desc><g id="special-day-promo--e-commerce-special-day-promo"><g id="cover"><path id="Subtract" fill="#000000" fill-rule="evenodd" d="M218.858 24.886c-6.378 -3.292 -13.99 -4.526 -20.986 -3.086 -6.172 1.234 -13.99 4.526 -16.458 10.698 -1.019 2.7666 -0.3898 5.3268 0.6484 7.826 0.421 -0.1464 0.8426 -0.291 1.2644 -0.434 -0.0934 -0.2022 -0.1834 -0.4028 -0.2688 -0.602 -2.674 -7.408 4.526 -12.344 10.698 -14.608 12.578 -4.324 25.85 0.062 31.946 7.994 -5.616 -3.21 -11.26 0.488 -13.018 7.23l0.002 0.002c-0.092 0.357 -0.174 0.7216 -0.244 1.0924 6.31 1.6164 12.648 3.5154 18.806 5.5842 0.104 -0.799 0.162 -1.653 0.162 -2.5686 0 -6.12 -4.042 -15.016 -12.55 -19.134l-0.002 0.006Zm-8.066 31.3478c-0.668 -0.1622 -1.324 -0.3184 -1.97 -0.4686 -0.32 0.3578 -0.676 0.6956 -1.074 1.0108 -2.53 1.9896 -6.016 1.2778 -9.0582 0.6566 -0.4196 -0.0856 -0.8308 -0.1696 -1.2298 -0.2446 -1.8534 -0.4124 -3.938 -1.0144 -5.9708 -1.6934 -0.9346 0.3698 -1.8676 0.7438 -2.7986 1.122 4.6228 1.952 9.8666 3.288 14.5334 3.4474 3.306 0.1322 5.848 -1.4354 7.568 -3.8302Z" clip-rule="evenodd" stroke-width="1"></path><path id="Subtract_2" fill="#000000" fill-rule="evenodd" d="M226.686 100.167c2.528 6.8346 3.988 13.6006 4.312 19.771 0 0.412 0.412 0.822 1.028 0.822 0.206 0 0.618 -0.206 0.618 -0.412l8.642 -15.224c1.638 -3.278 2.036 -3.2448 3.352 -3.1352 0.276 0.023 0.592 0.0492 0.968 0.0492 6.996 0.822 13.784 3.498 19.544 7.612 0.824 0.412 1.646 -0.412 1.44 -1.03v0.004c-1.856 -7.0332 -4.734 -13.6494 -8.498 -19.716 -0.562 0.2472 -1.124 0.4916 -1.688 0.7332 3.472 5.4622 6.128 11.257 7.866 17.1228 -5.718 -3.65 -12.336 -5.822 -19.28 -6.372 -1.44 -0.206 -3.06 0.63 -3.704 1.852 -2.94 5.5752 -3.838 7.0436 -6.5 11.3984 -0.624 1.0192 -1.342 2.1966 -2.208 3.6216 -0.734 -6.141 -2.22 -12.07 -4.236 -17.6004 -0.552 0.1686 -1.104 0.3364 -1.656 0.5034Z" clip-rule="evenodd" stroke-width="1"></path><path id="Subtract_3" fill="#000000" fill-rule="evenodd" d="M129.2234 101.8628c-2.4432 12.261 -2.1594 24.2274 0.1386 36.1832 0.206 0.822 1.234 0.618 1.646 0 3.17 -8.522 8.25 -16.086 14.87 -22.332 3.5896 8.2962 9.619 15.1854 17.1884 19.9864 0.207 -0.5328 0.4196 -1.0652 0.6378 -1.5968 -7.6168 -4.7822 -13.398 -11.628 -16.8542 -19.9236 -0.206 -0.412 -0.618 -0.618 -1.028 -0.618 -0.1982 0 -0.202 0.0036 -0.389 0.1838l-0.023 0.0222c-6.342 6.05 -11.442 12.992 -14.922 20.93 -1.6882 -9.5542 -1.9008 -21.4594 0.129 -32.5798 -0.4646 -0.0844 -0.9292 -0.1696 -1.3936 -0.2554Zm36.0354 28.6722c0.301 -0.653 0.6108 -1.3048 0.9292 -1.955 0.0556 -0.1206 0.1124 -0.2404 0.17 -0.3594 -1.374 -7.006 -2.0848 -14.1152 -2.1818 -21.2442 -0.6178 -0.068 -1.2354 -0.1372 -1.853 -0.2074 0.1908 7.968 1.2004 15.8756 2.9356 23.766Z" clip-rule="evenodd" stroke-width="1"></path><path id="Subtract_4" fill="#000000" fill-rule="evenodd" d="M153.83 52.7464c-0.0628 -0.028 -0.1254 -0.0562 -0.188 -0.0844 -3.704 -1.646 -6.996 -4.116 -9.258 -7.408 -1.37 -2.118 -1.758 -4.614 -1.258 -6.938 7.729 0.7966 11.475 4.4754 14.9608 7.8986 1.006 0.988 1.9902 1.9546 3.0422 2.8244 5.0894 -2.4652 10.273 -4.7252 15.5296 -6.7402 -0.0886 -0.259 -0.1762 -0.5182 -0.2638 -0.7768 -0.8046 -2.3758 -1.5948 -4.7094 -2.8008 -6.554 -4.756 -6.87 -12.864 -10.414 -21.758 -8.234 -4.392 1.076 -8.662 2.618 -12.806 4.532 -5.144 2.264 -9.67 5.35 -13.578 9.258 -3.498 3.498 -5.556 8.436 -5.144 13.578 0.412 5.144 3.704 8.642 8.024 11.11 0.87 0.4686 1.7402 0.937 2.6174 1.3986 0.396 -0.27 0.7928 -0.539 1.1906 -0.807 -0.2154 -0.1124 -0.4304 -0.2248 -0.645 -0.337 -0.1626 -0.085 -0.3248 -0.1698 -0.487 -0.2546 -4.32 -2.262 -8.436 -5.144 -9.258 -10.288 -1.852 -10.904 8.848 -18.31 17.282 -22.22 2.674 -1.234 5.556 -2.468 8.436 -3.292 1.5042 -0.4296 2.1064 -0.6394 2.1182 -0.6102 0.043 0.1062 -7.6958 3.3644 -8.2902 10.6922 -0.3556 6.0474 4.6644 10.8594 10.9544 14.0998 0.5254 -0.2846 1.0518 -0.567 1.5796 -0.8474Z" clip-rule="evenodd" stroke-width="1"></path><path id="vector" fill="#000000" d="M276.878 66.858c-0.584 -1.454 -1.832 -2.5 -3.086 -3.292 -9.582 -6.062 -32.538 -16.472 -56.58 -22.838 -7.256 -2.046 -16.792 -3.514 -24.478 -4.386 -0.812 -0.092 -1.906 0.326 -2.256 0.432C160.946 45.698 134.214 60.8 110.852 80.95c-0.516 0 -1.036 0.306 -1.036 0.926 0 6.534 0.09 11.032 2.88 17.076 0.156 0.31 0.544 0.502 0.99 0.492 21.928 5.106 45.2 8.566 67.728 9.794 14.72 1.092 18.892 -0.772 32.302 -4.526 23.284 -6.52 40.97 -11.994 61.85 -23.964 0.368 0.06 0.796 -0.054 1.106 -0.52v-0.206c1.04 -3.12 0.824 -3.828 0.824 -8.024 0.206 -1.646 0.038 -3.512 -0.618 -5.144v0.004Zm-165.068 14.674c25.154 -19.638 49.61 -34.686 79.464 -43.44l3.348 15.066C165.64 63.952 139.126 78.674 114.238 97.034c-3.35 -7.594 -1.992 -14.392 -2.43 -15.502h0.002Zm40.8 23.386c-12.254 -1.606 -24.844 -4.132 -37.114 -6.55 4.988 -3.636 10.072 -7.126 15.242 -10.474 15.438 3.636 31.358 5.166 46.972 7.56 4.176 0.64 8.318 1.056 12.476 0.94 1.064 6.19 1.278 9.04 1.692 11.254 -10.228 0.528 -32.588 -1.99 -39.27 -2.732l0.002 0.002Zm65.22 -3.086c-8.888 2.594 -17.448 5.09 -23.952 5.676 -0.016 -2.44 -1.078 -7.704 -1.896 -11.19 6.284 -0.36 12.68 -2.1 18.854 -3.95 18.484 -5.542 32.118 -9.732 49.212 -18.688 4.588 1.894 9.158 3.92 13.624 6.166 -17.52 9.976 -36.68 16.456 -55.84 21.986h-0.002Zm57.116 -23.204c-24.606 -12.592 -62.242 -23.816 -78.692 -25.75l-3.358 -15.11c26.59 4.214 52.528 12.698 76.164 25.59 3.086 1.646 6.378 3.086 6.378 7.202 0 5.524 0.128 5.724 -0.492 8.07v-0.002Z" stroke-width="1"></path></g><g id="elements"><path id="vector_2" fill="#000000" d="M96.858 248.512c-1.46 1.252 -2.868 2.704 -4.134 4.132 -28.324 31.99 -29.924 31.798 -28.794 32.92 0.32 0.322 0.928 0.32 1.236 0.012 6.84 -6.134 11.438 -12.392 29.022 -30.872 1.18 -1.24 2.602 -2.728 3.742 -4.778 0.61 -0.916 -0.388 -2.078 -1.07 -1.416l-0.002 0.002Z" stroke-width="1"></path><path id="vector_3" fill="#000000" d="M57.97 220.248c-1.224 0 -15.218 5.34 -16.362 5.78 -13.188 5.07 -17.554 4.784 -16.898 6.278 -0.128 0.366 0.004 0.68 0.546 0.68 1.366 0 15.686 -4.732 16.956 -5.156 4.904 -1.454 10.08 -3.354 16.264 -5.97 0.94 -0.312 0.464 -1.612 -0.506 -1.612Z" stroke-width="1"></path><path id="vector_4" fill="#000000" d="M67.428 112.744c0.7 0.7 1.716 -0.366 1.064 -1.016 -7.576 -9.568 -18.484 -18.304 -28.622 -24.92 -0.556 -0.548 -1.556 0.862 -0.78 1.292 14.436 9.814 21.182 17.818 28.336 24.642l0.002 0.002Z" stroke-width="1"></path><path id="vector_5" fill="#000000" d="M304.876 105.3262c7.38 -8.304 14.666 -18.106 24.642 -27.566 1.644 -1.56 3.564 -3.444 4.824 -5.212 0.374 -0.752 -0.484 -1.586 -1.062 -0.996 -2.298 1.642 -3.33 2.4 -6.208 5.278 -2.664 2.664 -1.34 0.978 -9.41 9.682 -4.77 5.146 -8.716 9.468 -14.25 17.784 -0.564 0.562 -0.072 1.286 0.726 1.286 0.288 0 0.656 -0.164 0.74 -0.256h-0.002Z" stroke-width="1"></path><path id="vector_6" fill="#000000" d="M366.5 126.6462c-3.45 0.958 -7.172 2.534 -10.758 4.55 -3.43 1.816 -6.976 3.694 -10.266 5.95 -0.49 0.16 -0.236 1.036 0.368 1.036 0.34 0 -0.01 -0.018 10.59 -5.632 3.59 -1.9 7.07 -3.02 10.486 -4.728 0.804 -0.404 0.22 -1.52 -0.418 -1.174l-0.002 -0.002Z" stroke-width="1"></path><path id="vector_7" fill="#000000" d="M316.926 249.494c-0.736 -0.366 -1.614 0.89 -0.958 1.514 1.77 1.686 3.74 3.024 5.602 4.354 11.794 8.398 17.314 13.268 24.304 17.302 0.706 0.352 1.632 -0.638 0.942 -1.324 -8.632 -7.13 -26.372 -19.682 -29.89 -21.846Z" stroke-width="1"></path><path id="vector_8" fill="#000000" d="M58.938 126.672c-11.346 -6.27 -23.27 -12.328 -48.54798 -21.81 -0.628 -0.45 -1.056 0.888 -0.216 0.972C34.644 115.624 45.442 122.118 58.288 128.042c0.944 0.31 1.592 -0.746 0.652 -1.372l-0.002 0.002Z" stroke-width="1"></path><path id="vector_9" fill="#000000" d="M315.396 276.96c-3.874 -5.622 -6.626 -9.846 -9.708 -13.832 -0.2 -0.202 -0.512 -0.226 -0.744 -0.06 -1.296 0.932 2.698 2.86 12.442 20.43 1.604 2.892 3.264 5.884 5.158 8.652 0.474 0.478 1.436 0.168 1.104 -0.54 -2.616 -5.562 -5.286 -10.344 -8.252 -14.65Z" stroke-width="1"></path><path id="vector_10" fill="#000000" d="M389.256 86.356c-14.852 9.488 -40.108 29.288 -52.92 41.388 -0.278 0.264 0.144 0.782 0.496 0.782 0.586 0 6.674 -5.202 6.946 -5.432 21.578 -18.374 33.014 -25.654 46.262 -35.45 0.71 -0.708 -0.174 -1.928 -0.784 -1.288Z" stroke-width="1"></path></g><g id="box"><path id="vector_11" fill="#000000" d="M195.198 213.14c-24.894 6.378 -48.76 17.076 -70.158 31.478 10.332 20.91 47.782 35.588 65.878 41.626 -0.438 -24.332 1.324 -48.78 4.28 -73.104Z" stroke-width="1"></path><path id="vector_12" fill="#000000" d="M279.498 238.972c-2.378 -4.462 -5.462 -5.882 -15.17 -9.784 -7.846 -3.152 -28.184 -13.232 -58.842 -16.254 -3.498 -0.412 -7.202 -0.412 -10.698 -0.618 -0.42 0 -0.524 0.224 -0.446 0.49 -23.498 6.3 -47.674 16.694 -68.31 30.92 -0.65 -1.124 -2.4178 -0.114 -1.8138 1.098 0.112 0.212 0.2258 0.424 0.3398 0.634 -1.852 11.416 -2.574 23.178 -1.986 34.754 0.666 20.014 5.01 40.898 9.464 53.698 1.734 4.98 5.08 9.556 9.464 12.55 4.666 3.186 9.692 5.922 14.812 8.642 17.848 9.474 27.594 15.32 49.584 23.66 0.618 0.154 1.288 -0.408 1.382 -0.634 18.802 -5.508 35.166 -14.286 50.464 -26.524 5.554 -4.32 10.792 -9.398 14.812 -15.224 3.792 -5.494 4.938 -12.138 5.966 -18.518 2.058 -12.138 3.292 -24.278 3.498 -36.622 0.806 -18.276 -1.31 -41.122 -2.522 -42.268h0.002ZM196.37 213.72c20.42 1.272 40.888 5.696 59.934 14.028 4.114 1.852 8.436 3.498 12.756 5.554 3.536 1.414 7.11 3.118 8.69 6.198 -10.656 15.802 -36.78 32.444 -53.952 40.712 -13.976 6.45 -19.104 7.336 -21.872 8.172 -3.222 -0.686 -6.4278 -1.496 -9.6038 -2.42 -0.464 -24.882 1.3238 -47.148 4.0478 -72.244Zm-1.7378 0.304c-3.504 24.682 -4.7362 50.336 -4.3262 71.338 -15.414 -4.742 -37.8318 -15.296 -53.9498 -29.014 -3.664 -3.114 -6.838 -6.88 -9.376 -11.01 24.486 -14.66 37.334 -23.046 67.652 -31.314ZM146.644 347.696c-4.938 -2.468 -8.846 -6.378 -11.522 -11.11 -6.314 -13.682 -9.398 -35.374 -10.518 -51.596 -0.686 -11.152 -0.008 -27.818 1.692 -36.652 12.626 19.126 51.3862 37.346 74.164 41.978 -1.1658 11.454 -1.5438 23.1 -0.9418 34.746 0.6278 18.554 2.8978 39.686 5.0138 51.284 -18.788 -6.804 -41.088 -18.792 -57.89 -28.654l0.002 0.004Zm133.732 -71.186c-0.234 14.04 -2.064 41.58 -6.996 54.728 -3.086 6.584 -8.436 11.522 -13.784 16.254 -9.576 8.568 -15.386 11.542 -20.368 14.608 -4.526 2.88 -9.464 5.35 -14.402 7.612 -5.708 2.756 -11.816 4.706 -17.918 6.52 -3.934 -22.96 -6.894 -62.992 -4.01 -85.828 2.48 -0.558 12.516 -3.892 20.488 -7.718 18.478 -8.554 42.64 -24.08 54.894 -40.344 1.784 11.21 2.482 22.6 2.098 34.17l-0.002 -0.002Z" stroke-width="1"></path><g id="group"><path id="vector_13" fill="#000000" d="M129.774 319.714c13.82 0 23.04 9.132 24.278 20.574 0.662 6.116 -0.946 9.052 -1.44 11.522 0 0.41 0.544 0.896 1.028 0.412 1.822 -2.734 2.058 -6.232 2.058 -9.464 0 -15.38 -14.288 -25.874 -26.334 -23.866 0 0.206 0 0.824 0.412 0.824l-0.002 -0.002Z" stroke-width="1"></path><path id="vector_14" fill="#000000" d="M134.094 269.308c-4.026 -2.416 -9.3 -2.936 -10.742 1.39 0.206 0.206 0.178 1.422 0.178 1.422 5.556 -6.996 14.472 0.686 17.146 6.446 2.88 6.378 1.44 15.02 -5.144 18.722 -3.23 1.71 -7.164 1.84 -10.664 0.714v1.546c7.38 3.496 15.758 -1.52 18.07 -8.844 2.674 -8.23 -1.646 -17.282 -8.846 -21.396h0.002Z" stroke-width="1"></path><path id="vector_15" fill="#000000" d="M191.906 306.958c-2.264 -3.498 -6.172 -5.966 -10.288 -6.584 -11.614 -1.936 -20.67 7.176 -19.956 18.928 0.412 7.2 5.35 13.578 12.344 15.636 6.584 2.058 13.784 -0.618 17.488 -6.584 3.91 -6.584 4.116 -14.608 0.412 -21.396Zm-0.822 18.106c-2.264 5.966 -8.23 9.464 -14.608 8.846 -10.746 -1.386 -16.228 -13.078 -12.14 -22.426 2.212 -6.636 8.87 -9.258 15.226 -9.258 3.498 0 6.79 1.44 9.258 3.91 4.526 4.732 4.526 13.168 2.264 18.928Z" stroke-width="1"></path><path id="vector_16" fill="#000000" d="M155.696 271.57c1.54 15.92 19.996 21.838 29.832 14.814 0.412 -0.206 0.412 -0.822 0.206 -1.234 -0.206 -0.412 -0.822 -0.412 -1.028 -0.206 -13.606 6.804 -25.862 -1.708 -27.98 -13.578 0 -0.412 -0.412 -0.618 -0.822 -0.412 0 0 -0.206 0.206 -0.206 0.618l-0.002 -0.002Z" stroke-width="1"></path><path id="vector_17" fill="#000000" d="M222.562 371.354c-1.234 -5.554 -2.88 -11.11 -6.584 -15.636 -5.994 -7.492 -20.6038 -8.4 -26.7458 -1.028 -3.292 3.91 -5.04 8.844 -5.144 13.99 -0.004 0.202 0.434 1.146 1.106 0.472 0.982 -3.604 1.644 -9.346 4.86 -13.024 4.25 -5.558 17.0998 -8.006 24.8938 1.234 3.398 4.028 4.732 9.464 5.76 14.608 0 0.412 0.412 0.618 0.618 0.618 0.412 0.206 0.618 0 1.028 -0.206 0.206 -0.206 0.412 -0.618 0.206 -1.028h0.002Z" stroke-width="1"></path><path id="vector_18" fill="#000000" d="M242.52 298.728c-5.48 -8.77 -18.182 -8.706 -24.894 -2.264 -5.144 5.966 -6.378 14.196 -3.086 21.396 3.498 6.172 10.288 9.464 17.282 8.23 10.398 -1.834 17.67 -16.326 10.698 -27.364v0.002Zm0.822 10.288c-0.206 6.172 -3.852 12.498 -9.876 14.608 -5.712 2 -12.14 0 -15.842 -4.938 -4.114 -5.35 -3.498 -13.784 0.206 -19.34 6.9 -10.736 26.434 -5.99 25.512 9.67Z" stroke-width="1"></path><path id="vector_19" fill="#000000" d="M259.596 259.02c3.144 6.62 10.878 8.964 16.87 5.966 1.426 -0.57 4.59 -2.79 4.938 -4.526 0 -0.412 -0.206 -0.618 -0.412 -0.822h-0.412c-0.822 0.412 -1.44 1.44 -2.058 1.852 -0.822 0.618 -1.44 1.234 -2.468 1.646 -4.96 2.756 -12.164 0.952 -15.842 -4.732 -0.206 0 -0.814 0.202 -0.618 0.618l0.002 -0.002Z" stroke-width="1"></path><path id="vector_20" fill="#000000" d="M246.016 359.628c-1.426 -2.854 -1.642 -3.064 -2.058 -5.144 -0.412 -2.058 -0.576 -3.902 -0.206 -5.966 0.696 -3.896 2.522 -7.56 5.35 -10.492 5.246 -5.444 13.324 -5.414 17.076 -0.412 0.736 1.104 1.384 2.524 2.264 1.646 0 -1.438 -0.4 -2.7 -1.852 -3.91 -3.226 -3.226 -8.952 -4.462 -13.578 -2.264 -9.48 4.506 -12.824 15.228 -10.492 22.22 0.412 1.852 1.44 3.498 2.88 4.526 0.206 0.206 0.618 0 0.618 -0.206 0 0.412 0 0.206 0 0l-0.002 0.002Z" stroke-width="1"></path><path id="vector_21" fill="#000000" d="M280.992 284.326c-6.002 -7.388 -16.778 -2.882 -21.192 5.144 -5.73 7.778 -4.65 19.264 4.32 24.072 2.272 1.218 4.732 1.852 7.2 1.852 2.264 0 5.76 -0.206 7.2 -1.852 0.206 -0.206 0.206 -0.618 0 -0.822 -0.206 0 -0.206 -0.206 -0.412 -0.206 -1.852 0 -3.704 1.028 -5.76 1.234 -1.852 0 -3.924 -0.16 -5.76 -0.822 -7.992 -2.884 -11.068 -12.666 -6.79 -20.368 1.646 -3.704 4.526 -6.79 7.818 -8.846 3.91 -2.058 8.846 -1.646 12.138 1.234 0.822 0.206 1.44 -0.206 1.234 -0.618l0.004 -0.002Z" stroke-width="1"></path></g></g><g id="particle"><path id="vector_22" fill="#000000" d="M40.922 192.9118c-2.114 -0.346 -4.066 -0.334 -6.202 -0.14 -2.058 0 -4.114 0.412 -6.172 0.824 -2.058 0.618 -2.058 2.468 -2.264 4.32 -0.206 2.2642 -0.412 4.5262 -0.412 6.7902 0 0.394 0.322 0.822 1.234 0.822 4.526 -1.44 9.258 -1.646 13.99 -1.028 0.412 0 1.028 -0.206 1.028 -0.618 0 -8.9302 0.75 -10.6522 -1.204 -10.9702h0.002Zm-13.104 10.6942c0.118 -1.634 0.15 -3.182 0.318 -4.8682 0 -0.822 -0.024 -1.652 0.206 -2.674 0.186 -0.828 0.824 -1.028 1.646 -1.234 3.4 -0.756 6.93 -0.554 10.512 -0.358 -0.156 2.688 -0.046 5.5742 -0.022 8.2882 -4.272 -0.436 -8.536 -0.108 -12.658 0.846h-0.002Z" stroke-width="1"></path><path id="vector_23" fill="#000000" d="M83.892 51.8378c-1.852 -4.938 -2.262 -10.288 -1.234 -15.43 0 -0.412 -0.206 -1.028 -0.822 -1.028 -2.88 0.412 -5.76 0.412 -8.848 0.412 -0.206 0 -0.618 0.206 -0.618 0.412 -1.234 6.376 -2.832 14.17 0.412 20.368 0.234 0.448 0.396 0.566 1.176 0.23 2.722 -1.172 5.046 -2.632 9.316 -3.934 0.412 -0.206 0.824 -0.618 0.618 -1.028v-0.002Zm-9.998 3.632c-0.892 -2.878 -1.704 -6.316 -1.524 -9.186 0.196 -3.144 0.582 -6.476 1.334 -9.636 2.338 0.146 4.792 0.15 7.15 -0.094 -0.986 5.056 -0.618 10.104 0.952 14.988 -3.684 1.386 -6.056 2.212 -7.91 3.928h-0.002Z" stroke-width="1"></path><path id="vector_24" fill="#000000" d="M383.452 59.2458c-2.058 -1.03 -4.526 -0.824 -6.378 -2.264 -0.206 -0.206 -0.618 -0.206 -1.028 0 -0.138 0.1374 -0.206 0.2748 -0.206 0.412 -0.404 5.046 -2.194 9.894 -5.564 13.574 -0.618 0.674 0.27 1.202 0.822 0.574 3.132 -3.576 5.138 -8.07 6.018 -12.774 1.502 0.708 3.028 1.176 4.69 1.508 1.028 0.206 2.058 1.028 2.468 2.058 0.206 1.234 0.206 2.468 -0.412 3.704 -1.028 2.674 -2.264 5.144 -4.116 7.202 -0.872 0.872 -0.758 1.824 -3.498 0 -2.594 -1.298 -3.024 -1.646 -4.116 -1.646 -0.618 0 -1.028 0.618 -0.618 1.03 0.412 0.412 1.028 0.822 1.44 1.028 4.69 2.346 6.1 3.824 8.024 0.618 0.824 -1.028 1.646 -2.262 2.264 -3.292 1.852 -3.292 4.938 -9.258 0.206 -11.726l0.004 -0.006Z" stroke-width="1"></path><path id="vector_25" fill="#000000" d="M307.74 54.1018c0 -0.2 -7.204 -5.214 -7.408 -5.348 -0.822 -0.618 -2.058 -0.824 -3.086 -0.618 -1.028 0.412 -2.058 1.234 -2.88 2.058 -3.578 3.18 -5.868 6.318 -6.946 10.794 -0.64 0.47 -0.238 1.344 0.156 1.344 1.646 0.618 3.292 1.234 4.938 1.646 1.646 0.618 3.292 1.44 4.732 2.468 0.412 0.206 1.028 0.206 1.234 -0.206 1.852 -4.322 5.144 -8.23 9.052 -10.904 0.412 -0.206 0.618 -0.824 0.206 -1.236l0.002 0.002Zm-10.646 10.308c-1.296 -0.916 -2.802 -1.6 -4.166 -2.284 -1.316 -0.658 -2.766 -1.052 -4.24 -1.184 1.808 -4.812 4.036 -8.076 8.148 -11.16 1.234 -0.822 2.058 0 3.086 0.824l5.29 4.056c-3.49 2.574 -6.236 5.864 -8.118 9.75v-0.002Z" stroke-width="1"></path><path id="vector_26" fill="#000000" d="M359.998 230.834c-0.186 -0.828 -1.242 -1.424 -2.058 -1.852 -3.996 -2.098 -8.478 -3.4 -12.84 -3.31 -1.352 0.028 -0.63 0.842 -0.142 0.872 -1.434 2.254 -2.868 4.71 -4.506 6.758 -0.412 0.412 -0.412 1.44 0.412 1.44 2.674 0.412 5.144 1.028 7.406 2.058 6.816 3.098 6.158 5.776 7.818 4.116 1.03 -2.264 2.264 -4.526 3.292 -6.996 0.618 -0.824 0.848 -2.062 0.618 -3.086Zm-4.892 8.138c-3.578 -3.146 -7.86 -5.24 -12.478 -5.91 1.23 -2.128 2.61 -4.54 3.784 -6.402 3.438 0.34 6.748 1.166 9.882 2.734 0.822 0.412 2.058 0.822 2.264 1.646 0.222 0.888 -0.466 1.962 -3.452 7.932Z" stroke-width="1"></path><path id="vector_27" fill="#000000" d="M60.0262 257.992c-3.91 0.412 -7.2 -2.468 -7.612 -6.378 0 -0.822 -1.44 -1.234 -1.646 -0.206 -0.206 1.852 -0.824 3.91 -1.852 5.556 -1.934 2.708 -4.78 1.774 -5.556 1.646 -0.822 0 -1.038 1.044 -0.412 1.44 1.014 0.642 2.058 1.028 3.086 1.646 3.052 1.83 5.558 4.996 6.584 7.818 0.206 0.412 0.824 0.618 1.234 0.412 0.412 -0.206 0.618 -0.618 0.618 -1.028 -0.618 -4.114 1.852 -7.818 5.76 -9.052 1.028 -0.206 0.824 -1.852 -0.206 -1.852l0.002 -0.002Zm-7.282 7.522c-1.33 -2.086 -3.318 -4.238 -5.532 -5.39 2.268 -0.524 3.834 -2.81 4.5 -5.042 0.954 2.208 2.756 3.888 5.036 4.582 -2.026 1.416 -3.45 3.5 -4.004 5.848v0.002Z" stroke-width="1"></path><path id="vector_28" fill="#000000" d="M387.978 182.2778c-3.434 -2.062 -3.534 -5.534 -1.336 -8.32 0.248 -0.176 0.488 -0.354 0.72 -0.526 0.822 -0.618 0 -1.852 -0.824 -1.44 -0.408 0.3 -0.772 0.638 -1.094 1.008 -2.758 1.89 -6.41 3.362 -9.616 1.38 -1.462 -1.272 -2.276 0.514 -1.224 1.314 3.636 2.764 1.73 7.856 0.206 11.11 -0.39 0.834 0.618 1.852 1.44 1.028 2.622 -2.622 6.626 -6.428 10.464 -4.254 1.534 1.262 2.338 -0.764 1.262 -1.3h0.002Zm-10.008 1.438c0.616 -2.282 0.898 -4.684 -0.152 -6.802 2.028 0.47 4.228 -0.244 6.22 -1.314 -0.53 1.806 -0.364 3.838 0.552 5.622 -2.3 -0.13 -4.778 1.11 -6.62 2.496v-0.002Z" stroke-width="1"></path><path id="vector_29" fill="#000000" d="M93.974 312.102c-4.27 -1.22 -3.964 -3.026 -5.74 -4.85 -0.826 -0.848 -0.602 -0.54 -0.994 -0.008 -4.104 5.564 -10.548 7.328 -16.926 9.18 -0.412 0.206 -0.618 0.618 -0.618 1.028 0 0.138 0.0688 0.274 0.206 0.412 1.852 2.058 3.91 3.91 6.172 5.556 2.264 1.646 4.32 2.88 6.996 1.44 4.526 -2.88 8.642 -6.79 11.522 -11.522 0.124 -0.248 0.136 -1.234 -0.618 -1.234v-0.002Z" stroke-width="1"></path><path id="vector_30" fill="#000000" d="M327.902 348.518c-0.32 -0.32 -0.636 -0.734 -7.406 -9.052 -0.206 -0.206 -0.618 -0.206 -1.028 -0.206 -4.78 3.386 -10.138 7.156 -16.26 6.462 -0.128 -0.168 -0.264 -0.334 -0.406 -0.496 -0.288 -0.288 -1.234 -0.188 -1.234 0.412 1.214 5.262 4.622 9.952 10.082 11.316 2.674 0.206 5.522 -0.672 7.818 -2.058 2.84 -1.714 5.556 -3.292 8.23 -5.144 0.412 -0.206 0.616 -0.822 0.206 -1.234h-0.002Z" stroke-width="1"></path><path id="vector_31" fill="#000000" d="M61.672 359.628c-1.234 -2.264 -3.498 -3.91 -6.172 -4.32 -2.88 -0.618 -5.76 -0.618 -8.846 -0.206 -2.836 0.188 -5.324 1.246 -7.624 2.852 -1.268 0.886 -1.002 1.742 -0.85 2.552 0.458 2.452 1.224 3.77 3.742 8.174 0.206 0.412 0.618 0.412 1.028 0.412 6.172 -2.468 13.168 -2.88 19.546 -1.028 0.214 0.106 1.028 0.086 1.028 -0.822 -0.206 -2.674 -0.822 -5.144 -1.852 -7.612v-0.002Z" stroke-width="1"></path></g><g id="sale"><g id="group_2"><path id="vector_32" fill="#000000" d="M198.896 128.476c-5.088 -6.002 -14.186 -12.064 -21.792 -10.196 -6.864 1.464 -16.166 6.454 -19.556 13.798 -8.29 16.926 -10.682 34.868 -8.024 50.818 0.412 2.88 0.822 5.556 1.646 8.436 1.234 3.292 3.136 6.326 5.556 8.642 2.052 1.966 7.632 0.624 9.66 -0.12 3.94 -1.448 6.27 -2.174 6.828 -7.69 0.81 -8.026 -1.636 -10.968 -1.168 -24.446 3.03 -0.788 16.936 0.306 18.172 0.654 0.668 6.438 0.746 12.99 0.516 18.792 -0.248 6.268 1.572 10.206 4.178 12.052 4.868 3.452 17.522 -0.832 20.98 -7.884 1.446 -2.95 2.124 -6.374 2.124 -8.782 1.566 -18.746 -5.672 -38.222 -19.114 -54.076l-0.006 0.002Zm17.518 54.008c0 3.684 -1.774 10.198 -5.59 12.49 -2.916 1.824 -6.826 1.348 -9.298 -1.122 -5.382 -5.384 -0.46 -11.016 -4.102 -29.218 -0.066 -0.332 -0.334 -0.586 -0.67 -0.634 -10.224 -1.458 -16.532 -0.058 -25.684 2.318 -0.342 0.086 -0.588 0.388 -0.602 0.742 -0.106 2.566 -0.17 8.098 0.194 10.6 0.71 4.886 2.762 17.818 -1.66 19.396 -0.986 0.348 -2.13 0 -3.068 -0.938 -4.95 -4.95 -6.012 -10.098 -6.978 -16.848 -2.734 -16.408 0.092 -34.284 7.962 -50.352 2.726 -5.908 7.782 -9.356 13.24 -9.356 6.288 0 13.462 5.166 17.528 9.962 13.164 15.53 20.262 34.578 18.73 52.964l-0.002 -0.004Z" stroke-width="1"></path><path id="vector_33" fill="#000000" d="M192.004 147.5618c-4.416 -8.834 -6.798 -10.696 -10.97 -13.476 -0.392 -0.26 -0.94 -0.128 -1.16 0.308 -3.03 6.062 -4.388 9.118 -6.638 17.22 -0.186 0.668 0.514 1.236 1.128 0.93 3.694 -1.848 11.376 -3.826 16.924 -3.826 0.594 0 0.982 -0.626 0.716 -1.158v0.002Zm-12.92 -7.858c2.41 2.054 4.358 4.8 5.926 8.008 -3.596 0.614 -7.172 1.632 -9.768 2.688 1.346 -4.674 2.404 -7.544 3.842 -10.696Z" stroke-width="1"></path></g><g id="group_3"><path id="vector_34" fill="#000000" d="M276.194 183.6138c-8.03 -4.038 -17.636 -6.706 -26.304 -7.786 3.482 -14.422 5.502 -34.926 1.84 -46.826 -1.478 -5.906 -5.602 -8.664 -9.628 -7.922 -4.894 0.904 -9.978 4.934 -12.34 12.026 -2.056 8.91 -3.598 30.736 -11.11 52.876 -2.058 6.172 3.494 12.242 9.464 12.344 9.186 0.158 17.978 -0.022 29.832 6.1722 7.262 3.794 16.004 0.596 21.152 -4.8462 3.538 -3.74 3.828 -12.652 -2.908 -16.038h0.002Zm-9.452 16.8762c-9.518 -4.9742 -19.582 -7.0702 -29.2 -6.4902 -5.554 0.324 -11.232 -5.418 -9.284 -11.26 5.936 -17.498 7.734 -31.484 9.046 -41.694 0.682 -5.31 1.766 -18.336 7.048 -18.336 2.368 0 4.874 2.872 5.836 6.722 3.66 11.892 1.494 32.642 -2.068 46.89 -0.118 0.476 0.21 0.936 0.688 0.99 8.726 0.97 18.448 3.79 26.674 7.736 9.282 5.086 2.82 21.4862 -8.742 15.4442l0.002 -0.002Z" stroke-width="1"></path></g><g id="group_4"><path id="vector_35" fill="#000000" d="M343.822 153.8718c-6.198 -4.958 -10.548 -7.886 -20.242 -10.222 -3.152 -0.76 -10.84 0.12 -17.488 6.74 -15.572 18.216 -25.256 40.582 -28.186 55.9622 -1.028 4.114 0.56 8.738 4.32 10.904 10.82 6.23 15.154 7.25 21.808 9.67 5.934 2.544 12.032 2.948 18.1 0.338 4.968 -2.138 8.732 -4.642 9.732 -9.102 0.922 -4.116 -0.876 -8.214 -4.59 -10.442 -5.568 -3.246 -11.012 -3.13 -19.214 -7.9122 0.348 -1.202 0.716 -2.408 1.1 -3.616 2.028 0.888 7.552 0.334 12.076 -1.348 12.214 -4.54 12.316 -16.238 -2.426 -21.058 1.006 -1.724 1.94 -3.276 2.832 -4.706 2.092 0.698 3.524 1.546 8.314 3.942 4.84 1.612 10.924 0.186 15.008 -2.27 6.056 -3.64 6.778 -10.934 -1.144 -16.88Zm-26.428 21.154c4.14 1.182 11.148 4.562 11.148 9.724 0 3.984 -3.242 7.224 -7.224 7.224 -2.182 0 -3.28 -0.826 -6.538 -3.274 -2.928 -2.202 -3.062 -2.402 -3.566 -2.248 -0.24 0.07 -0.432 0.25 -0.52 0.482 -1.644 4.314 -3.106 8.698 -4.342 13.026 -0.1 0.3482 0.048 0.7202 0.358 0.9062 8.44 5.066 14.472 5.152 19.75 8.23 6.816 4.092 4.766 14.47 -4.322 15.384 -7.434 0 -22.916 -7.31 -30.838 -11.598 -3.236 -2.094 -4.91 -6.316 -3.968 -10.084 2.644 -13.8822 11.392 -35.7802 27.966 -55.5462 1.884 -1.884 4.708 -2.82 7.906 -2.048 11.426 2.758 14.612 6.254 19.648 9.94 9.228 6.756 4.094 14.456 0.068 13.58 -3.976 0 -7.346 -3.662 -18.118 -6.354 -0.322 -0.08 -0.658 0.044 -0.848 0.316 -2.178 3.084 -4.348 6.53 -7.034 11.17 -0.26 0.452 -0.03 1.026 0.472 1.17h0.002Z" stroke-width="1"></path></g><g id="group_5"><path id="vector_36" fill="#000000" d="M130.596 162.962c-4.222 0 -8.616 0.432 -12.628 1.238 -5.276 0.528 -8.604 -0.544 -9.126 -2.942 -0.334 -1.532 0.466 -3.432 1.882 -5.036 4.266 -0.094 11.438 0.426 16.376 -5.216 2.572 -2.94 2.41 -8.542 -0.896 -11.49 -3.118 -2.782 -6.966 -4.528 -10.99 -4.74 -10.506 -0.602 -20.736 5.168 -26.844 13.744 -9.096 12.772 -7.876 30.396 6.838 35.816 10.95 4.38 19.662 -2.41 26.948 0.11 2.74 0.948 4.224 2.866 4.52 5.118 1.32 10.024 -5.932 7.32 -12.414 4.562 -6.184 -2.63 -12.438 -1.35 -14.734 0.084 -12.898 6.448 -11.344 18.55 4.32 23.66 13.154 4.292 33.594 -2.012 41.498 -9.916 16.704 -16.062 7.172 -43.178 -14.75 -44.994v0.002Zm13.63 43.852c-12.134 12.136 -32.464 10.216 -41.004 0.458 -5.156 -6.016 -0.364 -13.206 5.38 -13.206 4.994 0 13.748 8.714 23.502 1.404 3.716 -2.788 5.326 -7.502 3.828 -11.208 -0.726 -1.798 -3.304 -5.872 -11.598 -4.834 -5.87 0.652 -12.544 3.32 -20.208 0.25 -7.728 -2.846 -11.898 -9.32 -12.026 -16.968 -0.102 -6.088 1.64 -12.042 5.228 -16.832 5.854 -9.37 18.782 -13.218 27.81 -5.166 4.17 3.72 2.026 12.46 -5.194 10.978 -10.52 -3.51 -21.67 16.1 -1.742 14.092 3.99 -0.796 8.274 -1.218 12.326 -1.222 20.5 1.712 29.37 27.182 13.698 42.254Z" stroke-width="1"></path></g></g></g></svg>