<svg xmlns="http://www.w3.org/2000/svg" viewBox="0 0 400 400" id="Dropshipping-2--Streamline-Milano.svg" height="400" width="400"><desc>Dropshipping 2 Streamline Illustration: https://streamlinehq.com</desc><g fill="#000000"><path d="M159.0222 146.6596C159.0772 146.5566 159.0772 146.4328 159.0222 146.3296C158.7954 146.1234 157.888 145.3604 157.6612 145.1336C157.5094 145.0184 157.2898 145.1108 157.266 145.2998C157.2626 145.327 157.2638 145.3544 157.2692 145.381C157.393 146.309 158.7542 147.402 159.0222 146.6596ZM162.6518 143.4218C162.92 144.0818 166.1578 145.1336 166.2402 145.6904C166.268 146.0112 166.1274 146.3234 165.869 146.5152C165.7734 146.6214 165.8284 146.7912 165.9682 146.821C165.9762 146.8228 165.9844 146.824 165.9928 146.8246C166.8796 146.8246 167.0032 145.5254 166.5496 144.948S163.5798 143.9374 162.92 143.2568C162.8788 143.1538 162.59 143.2568 162.6518 143.4218ZM164.4872 141.277C164.7966 141.4832 165.0648 141.0296 164.8586 140.7614C164.463 140.3248 164.0356 139.918 163.5798 139.5448C163.4846 139.4178 163.2876 139.4414 163.2252 139.5874C163.1964 139.6552 163.2058 139.7332 163.25 139.7922C163.5446 140.3744 163.9678 140.8822 164.4872 141.277ZM155.207 145.6904C155.5164 144.4468 156.055 143.2718 156.795 142.2258C156.795 142.0608 156.6712 141.8338 156.5062 141.9576C155.4194 142.8756 154.7932 144.2264 154.7946 145.649C154.7946 145.7934 155.1658 145.8554 155.207 145.6904ZM160.0946 138.2868C160.8146 137.8582 161.6528 137.6702 162.4868 137.7506C162.665 137.8548 162.8892 137.727 162.8902 137.5206C162.8904 137.4938 162.8866 137.467 162.8788 137.4412C162.59 136.2864 160.4246 137.5444 159.909 137.8742C159.782 138.0162 159.8564 138.2426 160.0428 138.2816C160.0598 138.285 160.0772 138.2868 160.0946 138.2868ZM164.5492 153.3826C162.354 154.5522 159.7104 154.5054 157.558 153.259S157.3518 153.259 157.4342 153.4032C159.1666 154.9294 163.2292 155.8574 164.776 153.6094C164.941 153.4652 164.6934 153.3002 164.5492 153.3826ZM59.9708 231.3164C58.5546 230.5708 56.8066 230.964 55.8462 232.2444C54.8096 233.506 55.0246 235.3756 56.3206 236.3688C59.414 238.5962 63.1674 232.9456 59.9708 231.3162ZM56.6506 232.3268C57.4482 231.5364 58.6384 231.2936 59.682 231.7082C60.8164 232.368 60.837 233.7704 60.1358 234.884C59.439 236.2868 57.571 236.591 56.465 235.4822C55.6822 234.5394 55.7634 233.1514 56.6506 232.3062ZM113.384 368.4168C94.5346 371.0154 52.1136 377.099 50.2368 377.8208C50.0924 377.8208 62.755 384.6676 68.5912 388.3178C68.5912 388.3178 134.873 379.1406 134.8936 379.017C134.9854 378.9426 134.9854 378.8026 134.8936 378.7282C127.6756 375.5524 113.5284 368.4168 113.384 368.4168ZM68.55 387.7198S58.2384 380.1512 51.8042 378.0476C57.0218 377.0784 113.6726 368.9942 113.6726 368.9942C120.3544 372.397 126.4588 375.1812 133.1612 378.6458ZM285.9558 326.2432C285.8632 327.41 285.8632 328.5822 285.9558 329.749C285.2694 329.6928 284.5798 329.6928 283.8934 329.749C283.646 329.749 283.5222 330.1614 283.8934 330.2234C285.3996 330.3926 286.9148 330.4682 288.4304 330.4502C288.7082 330.3834 288.8094 330.0408 288.6126 329.8336C288.5634 329.7818 288.5 329.7452 288.4304 329.7284H286.7394S286.5538 327.3362 286.3888 326.2432C287.42 326.2432 291.194 325.9132 290.1628 319.85H282.1818S281.625 326.037 285.9558 326.2432ZM279.975 330.574C280.4082 330.574 280.4082 329.9346 279.975 329.8934H279.6038C279.618 326.882 279.3836 323.8746 278.9026 320.9018C278.9026 320.7574 278.6552 320.9018 278.6346 320.9018C278.3942 323.8742 278.5048 326.8644 278.9646 329.8108C277.547 329.6356 276.1132 329.6356 274.6956 329.8108C274.6628 326.8098 274.4424 323.8136 274.0356 320.84C274.0356 320.6132 273.6852 320.6956 273.6644 320.84C273.533 323.8618 273.6434 326.8892 273.9944 329.8934L273.3344 330.079C273.2074 330.079 273.1282 330.2164 273.1916 330.3264C273.221 330.3776 273.2756 330.409 273.3344 330.409C275.5412 330.7182 277.789 330.4296 279.975 330.574ZM245.9474 356.1462C243.1324 355.8056 240.2866 355.8056 237.4714 356.1462S237.2446 356.1462 237.2652 356.2906C237.162 360.4402 237.5076 364.589 238.2964 368.6644C238.3176 368.7374 238.3608 368.8022 238.4202 368.85C240.5856 370.0872 246.0506 369.2004 246.0712 369.0562C246.3908 364.9034 246.3908 360.7322 246.0712 356.5794C246.1624 356.4262 246.1056 356.228 245.9474 356.1462ZM245.638 368.52C244.5244 368.3344 239.9668 368.52 238.7706 368.52C238.7706 368.52 238.1726 360.2708 237.5334 356.2906C240.2872 356.2312 243.0422 356.3414 245.7824 356.6206C245.5968 358.6828 245.4732 366.6226 245.638 368.5612ZM305.1762 350.4956C307.4798 351.0216 309.8674 351.0636 312.188 350.6194S312.4972 350.3924 312.4972 350.2688C312.353 347.9384 312.4972 345.6286 312.3736 343.2982C312.3736 343.1746 312.1054 342.989 312.023 343.0096C309.6704 342.8816 307.3112 342.9506 304.97 343.2158C304.9478 343.2614 304.9478 343.3146 304.97 343.3602C304.8666 345.6778 304.9218 347.9998 305.135 350.31S305.1762 350.475 305.1762 350.4956ZM311.8786 343.525C311.6722 345.7338 311.6722 347.957 311.8786 350.1656H305.465C305.465 348.9488 305.238 344.515 305.0936 343.5044C307.365 343.692 309.6476 343.699 311.9198 343.525Z" stroke-width="1"></path><path d="M395.4836 326.0988C381.8518 326.0988 327.6138 326.4288 313.4666 327.2744L308.1252 320.4894C304.9742 320.2574 301.8104 320.2574 298.6594 320.4894C298.6594 314.117 298.3706 301.1658 298.247 301.0008C292.2914 293.9074 285.9506 287.1468 279.2532 280.7492C273.5408 280.8524 250.7114 280.1512 244.9988 280.0892C244.875 280.0892 227.057 300.011 227.057 300.0728C226.5414 306.2596 227.057 320.8812 227.057 321.8092C222.6436 321.8092 218.0036 320.9844 213.6314 321.6236C213.6314 321.6236 209.8162 326.0576 206.1866 330.409C205.6852 330.2412 205.1662 330.1306 204.64 330.079C197.4426 330.079 183.3572 330.574 180.5112 330.6564C180.2224 331.3576 177.6858 327.9342 178.449 324.9234C178.8358 324.1416 179.4856 323.521 180.2844 323.1704C185.9556 321.2938 181.3568 318.1796 183.5634 315.2512C193.0912 305.7854 181.2536 304.6718 181.7486 296.9588C180.4082 287.1836 196.1846 290.0088 186.265 280.7492C185.6256 278.687 187.028 277.9034 187.1312 275.676C186.6156 266.2308 194.6172 272.4382 199.5048 270.6234C204.7018 268.8498 211.7754 263.9416 211.8786 260.0646C211.8786 258.3116 210.765 257.7342 209.4244 256.3112C207.5272 254.0014 207.754 251.898 208.022 248.8458C208.249 248.1034 208.1664 247.794 208.9914 247.196C214.1884 244.8242 210.7442 238.6786 214.0234 235.214C216.4774 233.1518 217.8798 237.2764 219.674 238.2868C221.0764 238.5756 223.5098 238.4518 224.4998 239.978C228.748 246.6804 241.6372 244.1024 242.6478 237.1114C243.0396 234.5954 241.3692 232.5124 242.4004 229.8934C245.2668 223.1498 255.8464 216.241 261.3526 220.3656C262.2214 221.0778 262.7826 222.0968 262.92 223.2116C263.4768 233.8942 284.079 237.9362 280.697 224.7376C279.212 221.8504 287.2962 223.5622 288.4924 223.8096C297.9994 226.5112 289.709 231.0276 293.0088 236.5958C293.9162 240.143 298.4944 239.3798 298.9274 243.257C299.3194 244.9892 298.7006 245.6492 300.1236 247.5052C302.1858 249.8356 304.9494 249.9182 308.3728 249.712C314.3328 249.3406 311.2186 244.35 315.4258 243.4014C337.5746 244.0818 316.2712 269.8604 345.5762 262.3124C347.8002 261.6084 350.1118 261.2196 352.4436 261.1576C358.2594 260.7658 359.6204 268.5818 357.5376 272.83C355.7846 275.676 350.402 276.9546 351.0208 281.0792S359.5998 283.8632 360.1154 287.266C360.1584 287.9754 360.0238 288.6842 359.7236 289.3284C356.4446 294.5252 362.8994 293.1848 362.755 296.9794C362.4664 304.5892 369.9318 299.8254 373.8708 301.599C377.9954 304.1562 370.138 311.0236 376.1806 313.2096C385.8732 315.1068 378.9852 321.2524 384.2234 322.6754C382.8004 322.0154 382.4086 320.8606 382.6354 318.819C383.213 313.292 379.542 313.9932 375.7474 311.8484C371.9116 308.6106 379.7276 301.537 372.056 300.5266C369.3132 300.2172 367.0034 301.9494 364.2194 300.1552C362.5076 298.6086 364.7762 295.5358 362.3014 294.1128C361.064 293.2672 360.3628 293.721 359.641 291.865C359.3936 291.2874 359.538 291.1638 360.0328 290.277C364.3224 283.2034 353.4336 285.1832 351.7838 281.2648C350.464 278.2332 356.1558 275.7378 357.9706 273.1394C359.8886 269.9428 359.6204 263.0754 355.3928 261.1782C347.288 257.5486 337.8428 267.5712 330.006 260.6008C327.655 258.126 328.645 254.8056 327.7788 251.506C326.3764 246.1648 320.4576 241.1946 314.642 242.8858C310.703 243.8756 312.9304 248.4538 308.5996 248.8458C297.8758 249.8562 300.9692 245.0718 299.8762 241.2772C296.0402 238.6786 292.5138 237.4826 292.9468 232.368C293.0706 230.0584 295.6484 227.5424 293.4212 225.3976C290.9052 222.3866 276.2424 220.6336 280.0988 225.15C282.1612 232.0174 274.84 233.8942 270.3442 231.337C261.4352 226.5112 265.601 224.82 262.2394 220.2006C256.7538 214.4262 246.5868 222.7372 243.4728 226.6556C238.977 232.265 243.7202 235.214 240.998 239.5242C236.8734 244.6386 227.655 244.618 224.2522 238.658C223.448 237.4412 219.2408 238.2044 218.6016 236.5958C219.014 234.2242 214.8482 232.4712 212.7446 235.6058C211.1774 237.9568 211.9816 240.8852 211.1774 243.5456C209.4656 246.7628 206.0216 248.5776 207.259 252.9084C207.4204 254.9814 208.5124 256.8696 210.2286 258.0434C213.549 261.4256 208.1664 264.6428 205.5474 266.7256C194.9678 275.3254 186.0794 263.0754 186.43 276.439C186.1412 278.2744 184.9864 279.8418 186.1618 281.6978C187.8736 283.0796 190.0184 285.2862 188.2242 287.2866C181.1298 292.071 179.8512 293.6384 182.0372 301.2482C193.5036 313.9312 180.2844 310.5286 182.7384 319.4994C182.7384 320.7574 181.8516 321.5618 180.6762 322.2422C176.5516 323.6858 177.7066 327.9754 179.6244 330.7802H168.5706C176.1804 304.2386 183.4396 265.8182 171.4372 241.2358C174.015 238.9466 175.2318 235.317 176.4898 232.1618C178.7582 226.408 181.2124 220.6956 183.1922 214.8592C185.2268 209.8208 186.0394 204.372 185.5638 198.959C185.2696 196.7222 184.8426 194.5048 184.2852 192.3186C191.1664 191.3226 197.8026 189.0568 203.8562 185.6368C202.9282 189.7614 202.6602 210.3842 202.7632 210.3842C205.2174 210.9822 215.57 209.9304 218.0654 209.518C218.1892 209.518 218.2716 192.3392 218.1892 189.0808C224.4464 189.2802 230.7096 188.963 236.9146 188.1322C236.7084 179.12 236.6878 170.1078 236.6054 161.0956C240.7298 161.8998 258.4448 160.312 263.1262 160.8274C263.1262 167.303 265.0442 197.1856 265.6836 200.2996C265.6836 200.5882 287.8118 201.7432 292.1014 201.4132C291.6682 207.9712 291.9158 215.1068 291.9158 221.6854C291.9158 222.098 305.6506 222.2628 312.1262 222.5928C312.4354 222.5928 320.664 213.4776 324.3142 208.8992C326.1908 211.209 336.5436 222.0978 336.5436 222.1392S353.4748 222.7372 356.7126 221.8298C356.9808 221.8298 357.4756 221.3348 357.4344 221.0256C356.8982 213.4364 356.9808 205.909 356.857 198.3404C362.384 198.5878 368.014 198.2166 373.5408 198.1136C373.5408 198.1136 373.9946 222.3248 374.077 227.3154C378.1884 227.7826 382.3394 227.7826 386.4508 227.3154C386.6334 227.261 386.6886 227.0294 386.55 226.8984C386.522 226.8718 386.488 226.8522 386.4508 226.8412C382.6118 226.6038 378.7616 226.6038 374.9226 226.8412C374.9226 221.9122 374.7988 202.3412 374.2008 197.4124C374.2008 197.2268 356.8776 197.9692 356.8364 197.9692C356.7292 197.9564 356.6304 198.0284 356.6096 198.1342C355.929 205.7028 356.4446 220.9842 356.362 221.005C352.9592 221.6854 340.235 221.1906 337.1828 221.3968C336.3786 218.757 324.541 208.0126 324.2936 208.2806C320.169 212.7352 315.8794 217.3134 312.023 222.036C305.6516 221.1326 299.205 220.877 292.7818 221.273C292.7818 214.6944 292.885 200.6502 292.452 200.6502C287.915 201.042 270.4062 199.4954 266.2816 200.0522C266.2816 196.67 264.343 167.365 263.7244 160.58C263.7244 160.3532 241.1836 160.58 236.5022 160.8688C236.5022 160.8688 236.1516 178.8312 236.3372 187.6784C236.3372 187.6784 218.086 188.7508 218.0654 188.792S217.6118 208.3838 217.8386 209.023C213.0954 209.023 203.4026 210.116 203.4026 210.116C203.4026 205.9916 204.413 189.5964 204.1244 185.513C209.2636 182.6302 213.7894 178.77 217.4468 174.1498C220.7052 170.0254 229.4904 155.3624 229.8204 152.599C229.8204 152.599 229.8204 152.3928 229.6966 152.331C229.0986 152.001 228.5006 151.671 227.8818 151.3616C229.511 144.2262 234.0688 128.0784 234.8524 126.3874C241.0392 125.1088 270.4474 117.3134 270.4268 117.1484C269.8906 111.972 267.9726 92.401 267.1478 87.7608C269.626 87.0414 271.216 84.6302 270.9012 82.069L276.5312 80.3366L275.7888 75.2016H268.0552C266.4424 73.1512 264.3044 71.5762 261.8682 70.644L261.3734 63.7146C257.0012 63.426 256.5888 60.9306 256.3826 59.92S255.0628 58.992 254.6502 58.992C254.4488 59.0162 254.269 58.8648 254.2584 58.662L253.6192 53.3826L236.626 67.5712C226.5826 67.4474 217.158 73.4898 217.158 73.4898C203.2582 69.3654 198.7418 70.1078 198.7418 70.1078L199.1956 76.769L208.7852 81.5122C207.8492 82.8392 207.4044 84.4506 207.5272 86.0698C208.6202 91.2256 212.126 91.1842 213.6108 90.9162C213.6108 92.834 215.6732 112.1164 216.4156 116.4472L225.9228 120.9018C225.1596 121.8916 226.892 123.9334 227.985 124.3252C227.5726 128.4496 217.6736 142.597 215.6112 146.3296C215.1576 146.206 214.0234 145.9172 213.9614 146.041C210.0432 151.2586 201.8558 161.6112 201.794 161.6318C196.0196 162.003 172.4272 164.684 168.6532 165.7564C167.8098 163.975 166.7798 162.2882 165.5804 160.7244C168.9624 157.198 174.8194 152.269 173.149 146.701C171.9322 142.5764 165.0236 134.2034 161.827 131.6256C162.2372 131.1238 162.4692 130.5 162.487 129.852C162.487 126.3874 155.4958 119.7056 152.1754 122.3454L151.763 122.201C148.4222 120.8812 146.5868 121.933 146.0298 123.2528C145.1144 122.4742 143.9284 122.0888 142.7302 122.1804C142.1584 122.2692 141.6382 122.5624 141.266 123.0054C142.0496 102.6094 141.4104 19.4168 140.936 10.4046C140.936 10.246 140.7642 10.1468 140.6268 10.226C140.563 10.263 140.5236 10.331 140.5236 10.4046C140.1936 19.5406 140.5236 107.332 140.338 124.6138C138.7912 124.3664 136.9558 124.4696 136.4402 125.8718C136.3064 126.3832 136.244 126.9108 136.2546 127.4392C136.0354 128.792 135.552 130.0884 134.8316 131.2544C132.915 134.8772 131.7372 138.845 131.367 142.9268C130.9764 145.1402 131.425 147.4196 132.625 149.32C133.296 149.944 133.848 150.6848 134.2542 151.506C134.3862 152.0182 134.4554 152.5444 134.4604 153.0734C134.6254 154.8882 136.1308 159.7138 138.0694 160.312C139.018 160.6212 139.5336 160.312 140.6886 161.1988C141.3278 170.8914 141.0804 170.7058 140.9566 171.3246C138.9682 172.2058 137.027 173.1902 135.141 174.2736C134.7472 172.4212 133.395 170.9196 131.5938 170.3346C132.2228 168.7872 132.443 167.1042 132.2332 165.447C131.9998 163.7696 130.904 162.3372 129.346 161.673C130.6946 160.5866 131.733 159.164 132.357 157.5484C132.9044 155.9002 132.0976 154.1074 130.5008 153.424C131.3902 152.1248 131.3902 150.4128 130.5008 149.1138C130.1504 148.7644 129.8948 148.3314 129.7584 147.8558C129.7584 147.3814 129.9646 146.8864 129.9028 146.4122C129.676 144.3498 127.1188 145.979 127.8406 141.009C128.5696 136.667 130.207 132.5278 132.6456 128.8622C132.8726 128.4702 132.6456 128.0166 132.6456 127.6248C132.7068 127.27 132.7068 126.9072 132.6456 126.5524C132.4364 125.7408 131.8982 125.0534 131.1608 124.655C129.8248 123.9868 128.2022 124.3686 127.3044 125.5624C126.7972 124.5714 125.9578 123.7902 124.9328 123.3558C124.9328 115.3336 125.3246 94.7108 124.9328 89.7818C124.9328 89.7818 124.7884 89.4314 124.5822 89.4106C89.6678 88.4414 55.0008 83.5332 20.1688 81.3678C20.0656 81.3678 19.9626 81.5122 19.9626 81.574C18.8076 120.1592 21.4886 355.445 22.4374 376.8516C16.2504 377.7796 10.1874 378.7694 4.1242 380.0068C3.9386 380.0068 3.9798 380.3574 4.1242 380.3162C20.375 378.254 122.5406 363.9416 132.6664 362.6836C132.7752 363.1554 132.9562 363.6074 133.2026 364.0242C134.2982 365.348 135.8234 366.2458 137.5126 366.5608C137.517 370.0948 137.8832 373.619 138.6056 377.0784C138.4408 377.0784 137.9458 376.7896 137.9046 376.8516C137.284 380.5996 137.1522 384.4122 137.5126 388.1942S154.7122 387.926 158.3418 387.7198C158.3418 387.7198 158.5068 387.5754 158.5068 387.5342C159.1254 383.4096 153.9696 380.0482 151.2062 377.9652C150.7302 377.5618 150.1852 377.2474 149.5976 377.0372C149.8864 375.841 151.1238 371.304 151.2268 370.2316C153.2892 370.4998 155.8464 371.304 157.5994 370.046S159.6616 366.1276 159.8266 364.0654C160.0946 361.6112 160.239 360.7864 158.5892 359.9408C159.5792 357.4868 163.9924 346.371 168.3232 331.3782C177.624 331.6464 202.3096 331.5844 205.8774 330.8214C203.217 333.9974 200.7216 337.0082 199.9174 338.2044C199.9174 338.2044 199.9174 374.7068 200.1854 374.7274C205.4648 375.5936 255.104 375.4904 266.364 375.078C266.364 376.0886 267.024 386.9362 267.2096 386.9568C281.6268 387.9328 296.091 388.0086 310.5176 387.1836C310.765 387.1836 310.3732 374.3974 310.3938 373.0364C313.9448 373.2468 317.5076 373.1224 321.0352 372.6652C321.1384 366.9938 321.1796 361.1988 321.2414 355.5276S321.86 343.6694 321.5096 337.8538L313.776 327.9342C328.5006 327.8104 381.8312 326.9856 395.4218 327.1918C395.8424 327.2156 396.1312 326.775 395.9414 326.3988C395.8534 326.2242 395.6788 326.1098 395.4836 326.0988ZM214.5388 79.553C224.241 72.2536 236.2778 68.7548 248.381 69.7158S261.2084 71.077 266.529 77.7794C266.529 77.7794 267.2302 79.388 265.9722 78.5836S255.9082 71.9226 246.7104 72.2112S222.788 75.3666 214.972 80.4604C214.972 80.5222 213.0952 81.3472 214.5388 79.553ZM214.2914 83.8218L250.3608 75.2016S251.763 96.938 253.2066 107.6C253.2066 107.6 222.7674 114.3848 216.9724 116.3646C216.9312 116.344 214.2914 83.8218 214.2914 83.8218ZM218.2922 116.8184C224.0666 115.9728 247.2878 109.6828 253.5778 108.2806C254.9926 109.124 256.4676 109.8616 257.9912 110.4872C258.1816 110.5746 258.3952 110.4228 258.3756 110.2142C258.3666 110.1174 258.3064 110.0328 258.218 109.9922C256.8086 109.1348 255.3562 108.3502 253.8666 107.6412C252.7736 96.9998 252.0518 86.3378 250.9588 75.7172L266.6734 87.6578C266.8384 92.4834 269.1688 111.8276 269.705 116.6534C267.7452 115.5308 265.7206 114.5254 263.6418 113.6424C263.4562 113.6424 263.3118 113.828 263.4562 113.9518C265.3242 115.1716 267.2666 116.2736 269.2718 117.2514C263.6418 118.3238 241.5342 124.0364 235.141 125.913C235.9454 125.0468 237.2034 125.15 238.2964 124.6756C240.07 123.9746 242.6066 122.6134 242.421 120.3862C242.5342 120.066 242.5342 119.7166 242.421 119.3962L263.0438 114.0344L258.4448 110.9616L224.0872 119.52C221.8394 118.5094 220.4782 117.6226 218.2922 116.8184ZM228.3356 124.387C228.3404 124.332 228.3404 124.2768 228.3356 124.222C227.8818 123.7064 227.2838 123.3764 226.8506 122.8196C226.4344 122.2852 226.2222 121.6198 226.2526 120.943C227.4076 120.716 229.7378 122.469 229.7378 122.469C232.9268 120.8138 236.2878 119.5136 239.7606 118.592C240.2022 118.4868 240.6662 118.5302 241.0804 118.7156C241.1062 119.084 240.9332 119.4378 240.6268 119.6436C240.235 119.8912 237.822 121.0048 237.1414 121.5204C237.0384 121.568 237.0254 121.7094 237.1182 121.775C237.1614 121.8054 237.2174 121.8106 237.2652 121.7884C238.0696 121.541 241.2248 120.1592 241.5754 119.2932C241.7188 119.2684 241.8652 119.2684 242.0084 119.2932C242.4416 121.1286 238.5852 122.3866 237.0384 123.129C236.9146 123.129 237.0384 123.4382 237.0384 123.4176C239.0406 123.0258 240.863 121.9988 242.2354 120.4892C242.0084 122.7578 238.482 124.2014 236.6672 124.6138C235.8816 124.6274 235.1362 124.963 234.605 125.5418C233.6768 126.7792 227.552 144.1024 226.9538 150.9904C223.562 149.119 219.9722 147.6318 216.2506 146.5564C219.179 142.9062 227.9438 128.264 228.3356 124.3044ZM152.4436 122.6752C155.0626 120.881 159.146 125.1912 160.507 127.0474C162.0678 128.5424 162.1142 131.022 160.6102 132.5742C159.7234 133.7084 153.2684 141.7926 151.268 144.948C152.0954 137.5256 152.488 130.061 152.4436 122.5928ZM147.3496 132.2856C147.8652 130.7182 149.9276 124.9644 152.093 123.129C152.093 133.6054 150.835 145.5254 150.8556 145.5666C150.1132 146.7834 149.3914 148.0002 148.7932 149.2374C147.1158 147.9806 144.8714 147.7808 142.9982 148.7218C143.8706 143.0794 145.329 137.543 147.3496 132.203ZM142.8746 149.0724C145.5762 148.3094 146.8754 148.1032 149.2058 150.2068C149.3294 150.2068 149.5564 150.2068 149.4532 150.0006C149.3058 149.7872 149.1402 149.5872 148.9582 149.4024C151.0206 145.278 159.476 134.616 160.9402 132.9042L161.6826 132.0174C165.1472 136.142 169.0656 139.9366 171.6846 144.783C175.1286 151.1554 165.0646 160.7244 165.106 160.8276C165.4566 161.7556 167.725 165.344 168.2406 166.3338C168.2744 166.3426 168.31 166.3426 168.3438 166.3338C172.4682 169.654 175.871 173.655 174.6956 179.3674S168.2612 186.936 162.8788 187.3072C153.5984 187.9258 146.5454 178.5632 142.8746 171.0564C144.8132 170.1078 146.9992 169.1592 149.0614 168.293C149.096 168.2434 149.096 168.1776 149.0614 168.128C148.7198 165.5144 148.5132 162.885 148.4428 160.25C148.9356 159.181 148.8662 157.9372 148.2572 156.9298C147.8554 156.6666 147.3614 156.5842 146.896 156.703C144.3278 156.805 142.0144 155.161 141.266 152.7022C140.771 151.1554 141.0598 149.5674 142.8746 149.0724ZM147.7416 160.8482C147.9728 163.2536 148.0554 165.671 147.989 168.0868C147.8652 168.2518 144.9368 169.4478 141.8022 170.8914C141.933 167.821 141.8158 164.7452 141.4516 161.6936C143.3834 163.3354 146.312 162.9418 147.7416 160.8482ZM135.2028 174.5622C137.2652 173.6756 139.2036 172.7474 142.2146 171.2832C144.599 176.5048 148.1896 181.085 152.691 184.6468C156.3524 187.9178 161.417 189.12 166.1578 187.8434C170.9672 187.1474 174.799 183.465 175.6854 178.6868C176.6134 173.0774 172.9426 169.3448 168.8594 166.0658C171.1484 165.3646 196.3082 162.5598 201.8558 161.9412C201.8558 161.9412 214.4564 146.1854 214.4564 146.1646C219.344 148.4332 224.4996 150.0212 229.2842 152.5372C225.6882 159.635 221.6876 166.5206 217.3024 173.16C209.3832 183.6364 196.8032 189.4108 184.1614 191.7206C183.402 188.7428 182.2066 185.8936 180.6144 183.2652C180.6144 183.1208 180.3256 183.2652 180.3874 183.3888C182.5562 188.0416 184.0826 192.9674 184.9244 198.031C185.6068 203.5758 184.898 209.2032 182.8622 214.4056C181.1918 219.2314 179.1914 223.9334 177.294 228.6766C175.5618 233.028 174.1594 238.39 170.076 241.0504C164.7554 242.3496 144.7924 245.876 128.6242 231.3988C127.3328 228.9508 126.8422 226.1594 127.2218 223.4178C127.3348 220.1916 127.6448 216.9754 128.1498 213.787C133.412 211.0438 137.831 206.924 140.936 201.867C141.0598 201.6608 140.771 201.5164 140.6472 201.702C136.3882 207.8506 130.3508 212.5496 123.3448 215.1686C115.977 217.8426 107.9976 218.3506 100.3504 216.6328S100.6184 208.2394 100.9278 203.6612C103.6088 203.6612 109.3418 203.4136 111.7754 200.6296C113.1614 199.1294 114.309 197.4254 115.1782 195.577C119.3646 186.8122 125.9638 178.3362 135.2028 174.5622ZM103.0726 298.6086L84.9862 295.8038C85.0738 295.168 84.8604 294.5276 84.4088 294.0716C83.1096 292.6486 80.2842 290.5244 78.0982 290.71C76.998 290.865 76.11 291.6872 75.871 292.7724C75.273 294.2572 74.6748 295.7214 74.0562 297.165C72.305 296.7148 70.5282 296.3704 68.7356 296.1338C68.4674 282.1104 68.2406 220.3862 67.8282 212.7352C69.6016 212.3846 71.1278 211.9514 71.7052 211.869C73.1694 212.4052 71.829 213.9312 71.7052 214.6324C71.5818 215.201 71.8514 215.7824 72.3652 216.0554C73.4994 216.4472 76.7372 213.787 77.7272 213.0238C81.5836 213.1888 96.0814 215.7874 99.6492 215.7874V217.4578C99.6486 217.5802 99.7542 217.6762 99.876 217.664C103.4338 218.946 107.261 219.294 110.9918 218.6746C115.3712 218.3368 119.693 217.4642 123.8604 216.076C125.154 215.5948 126.4206 215.044 127.655 214.4262C127.1164 218.1222 126.8132 221.8488 126.7476 225.5832C126.53 227.835 127.059 230.096 128.253 232.0174C112.0264 250.4052 103.0722 274.085 103.0726 298.6086ZM126.3764 265.7976C125.469 269.0148 124.6646 272.2526 123.716 275.4698C123.716 275.7378 123.1592 275.6966 123.2004 275.4698C123.6078 272.0916 124.5474 268.7994 125.9844 265.7152C126.0916 265.598 126.2854 265.6406 126.3334 265.792C126.334 265.7938 126.3346 265.7958 126.335 265.7976ZM121.9012 283.6776C121.6476 286.488 121.2066 289.2782 120.5812 292.0298C120.5246 292.2284 120.2744 292.291 120.1308 292.1426C120.1002 292.111 120.0778 292.0722 120.0658 292.0298C120.3418 289.2048 120.8034 286.401 121.4474 283.6364C121.4474 283.2446 121.9218 283.389 121.8598 283.6776ZM118.6428 298.5054C118.8708 300.945 118.2596 303.3894 116.9104 305.4348C116.7248 305.6822 116.2504 305.4348 116.3948 305.2286C117.4228 303.126 118.0256 300.8414 118.1684 298.5054C118.2606 298.3388 118.4988 298.3344 118.597 298.4976C118.5986 298.5002 118.6 298.5028 118.6014 298.5054ZM111.8578 311.7866C111.198 313.2714 106.5166 317.1278 105.0524 316.7566C104.8618 316.755 104.7446 316.5476 104.8414 316.3836C104.8854 316.3088 104.9654 316.2626 105.0524 316.2618C106.599 316.3854 110.703 312.4466 111.4454 311.5184C111.6516 311.3122 111.9198 311.5804 111.8166 311.7866ZM98.5974 315.9112C97.1732 315.9088 95.7664 315.5994 94.4728 315.0038C94.1016 314.8594 94.2666 314.2614 94.6378 314.4056C95.9854 314.8714 97.3634 315.2436 98.7624 315.5194C98.8242 315.6018 98.7624 315.9112 98.5562 315.9318ZM68.0138 312.4464C68.1994 311.6216 76.0566 293.3292 76.2628 292.8342C77.0672 290.9576 78.9438 291.205 80.6762 292.0712C82.3928 292.776 83.7024 294.2144 84.2438 295.9894S75.5204 317.1898 75.438 317.2722C74.2624 318.4272 73.788 318.6334 72.097 317.8496C69.8078 316.8598 67.3744 315.4986 68.0136 312.4466ZM56.3618 302.9188C56.0962 303.6546 55.9434 304.4264 55.9082 305.2078C55.472 305.2242 55.0378 305.2726 54.6088 305.3522V303.29C54.6078 303.2106 54.5212 303.1622 54.453 303.2028C54.4222 303.2212 54.4032 303.2542 54.4026 303.29C54.076 303.9982 53.8804 304.7598 53.8252 305.5378L52.6084 305.7854V303.9498C52.5524 303.8566 52.417 303.8566 52.361 303.9498C52.069 304.5978 51.9212 305.3016 51.928 306.0122C50.5658 306.3322 49.1438 306.2896 47.8034 305.8884C50.3812 303.5786 52.3816 299.1242 62.2394 290.4626C63.9198 292.0634 65.1928 294.0434 65.9514 296.237C63.9786 296.4258 62.1826 297.4552 61.0226 299.0622C59.8978 300.753 59.6744 302.8878 60.4246 304.7748S59.8058 305.5584 56.733 305.1666V302.96C56.686 302.8252 56.5104 302.7918 56.4172 302.9002C56.4122 302.906 56.4074 302.9122 56.403 302.9188ZM47.6178 305.641C46.9784 305.4036 46.4154 304.9974 45.9886 304.4654C50.608 299.1448 60.2596 288.854 60.2596 288.8128C61.003 288.8228 61.6722 289.2662 61.9712 289.947C56.695 294.6938 51.9008 299.9508 47.659 305.641ZM61.5382 298.9592C62.7548 297.5774 66.4464 294.979 73.7468 297.6186C73.19 298.8766 68.4468 309.415 68.4468 309.4562C66.0442 307.6288 63.4514 306.066 60.7132 304.7954C60.0298 302.8254 60.3532 300.6458 61.5794 298.9592ZM83.1096 310.0954C85.0452 310.66 86.9234 311.4058 88.719 312.3228C88.853 312.4482 88.8086 312.671 88.6366 312.7352C86.7172 312.1882 84.853 311.4632 83.0684 310.5698C82.6972 310.4874 82.8208 309.9718 83.1508 310.0954ZM71.7258 211.2916C71.5196 211.2916 62.5692 213.9106 62.2394 211.106C65.3328 211.106 67.3744 208.0126 70.4884 207.992C72.2446 208.3322 73.9798 208.7728 75.6854 209.3118C76.864 209.4458 78.054 209.4458 79.2326 209.3118C82.7178 208.92 96.762 205.8678 100.309 205.0428C99.795 208.455 99.5674 211.9042 99.6284 215.3542C95.7926 214.7356 80.9648 211.9928 77.4176 212.4464C77.4176 212.4464 71.5402 217.1484 72.365 214.6738C72.365 214.385 72.5714 214.1168 72.695 213.8282C72.9838 212.9002 72.9632 211.539 71.767 211.2916ZM20.4574 81.8834C27.861 84.585 57.9498 93.4734 65.5802 95.845C64.5904 133.1104 65.8278 170.5202 67.1888 207.765C67.1888 208.0744 67.9312 207.765 67.9312 207.497C66.632 170.1902 66.7558 95.4326 66.4876 95.3294C58.8778 92.7928 29.0572 83.2032 21.7568 81.7596C38.7294 83.1826 106.9908 89.8438 124.3966 90.2562C123.8398 95.948 124.211 116.179 124.2728 123.0672H123.984C122.503 122.9444 121.1868 124.0066 120.9938 125.48C119.511 122.7722 116.1758 121.6876 113.384 123.0052C111.6722 123.892 110.5586 126.4492 112.0434 127.6866C110.2446 127.063 108.2516 127.4056 106.764 128.594C105.3036 129.8154 104.5652 131.696 104.8048 133.5848C102.0456 131.4958 98.0596 133.177 97.6302 136.6112C97.561 137.1642 97.5952 137.7254 97.7312 138.2662C95.9916 137.9324 94.2064 138.5536 93.0498 139.8954C91.9478 141.3502 92.4808 143.4516 94.1428 144.2054C91.7 144.4148 89.6486 146.1286 89.0078 148.495C88.8228 149.0788 88.8228 149.7054 89.0078 150.2892C89.193 150.6984 89.4438 151.0746 89.7502 151.4028C90.8828 152.664 92.1798 153.7668 93.6066 154.6818C90.9792 154.1222 88.2742 155.206 86.7598 157.4248C85.3874 159.8046 86.3388 162.8492 88.8222 164.024C87.2754 163.3434 85.6668 164.8696 84.945 166.375C83.5426 169.2416 83.584 173.16 86.1 175.0984C83.809 175.9202 82.1642 177.9464 81.831 180.3572C81.522 182.7302 81.8202 185.1426 82.6972 187.369C83.066 188.6142 83.6834 189.7718 84.512 190.7718C85.3592 191.771 86.658 192.2688 87.956 192.0916C87.632 194.868 88.8904 197.5918 91.2144 199.1446C93.5594 200.6182 96.3984 201.0864 99.0924 200.444C99.5542 200.311 100.0374 200.269 100.5152 200.3202C100.8652 200.4266 101.1932 200.5942 101.4846 200.8152C102.8352 201.8006 104.3716 202.5022 106.001 202.8774C103.5262 203.1868 100.7216 203.4342 100.7216 203.4342C100.6332 203.432 100.5556 203.4924 100.536 203.5786C100.536 203.9292 100.4122 204.2592 100.371 204.6098C100.371 204.6098 93.421 206.1976 89.9358 206.672S83.2746 207.8682 79.9132 208.4044C77.86 208.794 75.7454 208.7166 73.7262 208.1774C72.7002 207.6978 71.5968 207.4044 70.4678 207.3112C67.395 207.435 65.0028 210.281 61.8476 210.446C61.7592 210.4408 61.6942 210.5276 61.7238 210.611C61.3938 212.8176 64.6522 213.2094 67.4364 212.6732C66.962 220.5924 67.6838 281.9452 68.055 295.9894C67.561 295.9482 67.0642 295.9482 66.5702 295.9894C65.7604 294.0166 64.6624 292.1748 63.3118 290.5244C62.59 289.617 61.2494 288.0702 59.909 288.2972C59.909 288.2972 45.473 304.1148 45.473 304.1974C46.6486 306.569 49.3708 306.7958 51.6598 306.4246C53.793 305.94 55.9692 305.6706 58.156 305.6202C59.1872 305.6202 59.8884 305.744 60.6102 305.0634C63.0402 306.83 65.5744 308.4484 68.1994 309.9098C67.56 311.5596 66.6114 314.0344 67.5188 315.4368C67.7116 315.738 67.948 316.009 68.22 316.241C67.725 324.0364 68.9624 349.2376 69.2304 350.4956C69.2304 350.4956 30.6452 372.1082 23.0148 376.3566C22.2104 357.6722 20.5812 103.6404 20.4576 81.8832ZM24.1078 376.5422C31.6764 372.7682 69.8492 351.073 69.8698 350.9906C70.241 349.6914 69.478 324.944 68.7356 316.6948C70.0956 317.6114 71.592 318.3074 73.1694 318.757C74.8192 319.2314 75.046 318.654 75.603 317.7466C77.6652 319.4376 105.1142 341.6896 120.8082 332.1826C123.0556 330.8068 125.097 329.1196 126.8712 327.1712C126.17 339.0086 125.572 350.9286 125.8194 362.7456C94.4728 366.5402 26.768 376.1504 24.1078 376.5422ZM132.625 361.8382L126.665 362.5806C127.1806 350.475 127.2424 338.3694 127.593 326.2638C140.6472 311.3122 150.505 280.6048 150.505 280.6048S150.9174 279.883 150.8762 280.7286S142.8334 305.0842 136.9146 314.447L135.1822 354.7026C132.3982 354.187 132.0682 358.8066 132.625 361.8382ZM128.5004 256.2286C129.3462 253.3014 130.6328 250.5198 132.3156 247.9796C132.4828 247.81 132.771 247.885 132.8342 248.1146C132.85 248.1718 132.849 248.2322 132.8312 248.2888C131.3052 250.908 130.3152 253.7126 128.9748 256.3936C128.8716 256.7236 128.4798 256.5174 128.5418 256.2286ZM157.9086 387.0804C154.4852 387.5136 139.74 387.5754 137.987 387.6992C137.987 386.8536 137.8426 386.2968 137.8014 385.472C144.1738 387.1836 157.8674 385.472 157.888 385.472C158.099 385.9838 158.121 386.554 157.9498 387.0804ZM151.4124 378.419C150.7 378.7278 150.0708 379.2014 149.577 379.8006C149.577 379.9862 149.742 380.11 149.8864 380.0482C150.5662 379.6942 151.2088 379.2728 151.8042 378.7902L152.8148 379.6976C152.1692 380.0484 151.5842 380.501 151.0824 381.038V381.1824C151.7424 380.7698 152.4848 380.4606 153.1448 380.11L154.0316 380.8318C153.3808 381.192 152.7952 381.6592 152.2992 382.2134C152.196 382.2928 152.2174 382.4542 152.3378 382.5038C152.3936 382.527 152.4576 382.5184 152.5054 382.4816C153.2338 382.1498 153.925 381.742 154.5676 381.2648C155.8652 382.263 156.9576 383.5024 157.7848 384.915C151.1702 385.8492 144.4572 385.8492 137.8426 384.915C137.849 382.383 138.0282 379.8542 138.3788 377.3466C140.7916 379.4088 142.792 381.038 145.9474 379.1406C146.7462 378.49 147.6102 377.9232 148.5252 377.4496C149.6014 377.2722 150.696 377.6344 151.4536 378.4188ZM149.3502 376.8928C148.4922 376.9832 147.6806 377.328 147.0198 377.8828C145.308 379.0376 143.452 380.2132 141.3898 378.9964C140.5442 378.4808 139.8842 377.7796 139.1006 377.2228C138.963 373.6532 138.577 370.0974 137.9458 366.5814C142.1554 368.273 146.5514 369.4568 151.0412 370.108C150.184 372.2888 149.6022 374.568 149.3088 376.8928ZM159.806 362.4568C159.6646 364.4626 159.2266 366.4364 158.5066 368.3138C157.5476 369.7634 155.7826 370.4562 154.0934 370.046C148.518 369.4686 143.0572 368.0792 137.8838 365.9214C135.9454 365.241 134.0068 364.6222 133.3262 362.3538C132.9138 360.9102 132.5838 354.352 135.3886 355.3008L158.5272 360.1678C159.3622 360.6232 159.848 361.53 159.7646 362.4774ZM163.25 251.0936C151 251.9186 136.8734 247.794 128.5004 238.39C128.5004 238.39 128.5004 238.2456 128.5004 238.39C133.351 242.6416 138.944 245.9624 144.9988 248.1858C150.8476 250.2258 157.0504 251.0538 163.2294 250.6192C163.58 250.5986 163.58 251.1762 163.2088 251.1968ZM245.0814 280.5018S267.952 281.4916 279.1708 281.0998C282.3054 284.4408 294.2874 297.1856 297.092 300.6502C273.6852 300.3202 251.4126 301.7846 228.0468 299.7428C234.543 294.319 239.5956 287.1836 245.04 280.6048ZM297.4426 301.3102C296.7828 313.3952 298.02 325.6244 297.7932 337.73C285.4196 337.8744 229.3254 337.8332 228.1912 337.73C228.1912 331.4194 228.0468 306.5278 227.6344 300.3616C239.307 301.9494 285.6876 301.7844 297.4014 301.4132ZM214.2708 321.933S223.0356 322.4486 227.2426 322.263V337.6682C218.4984 337.565 210.27 337.3382 201.5672 337.6682C203.9182 335.1728 212.1672 324.6964 214.2296 322.0568ZM201.4228 373.7168C201.134 367.7982 200.9484 361.8794 200.9278 355.9606S201.464 344.0818 200.9278 338.3074C210.9506 338.8024 246.463 338.7818 254.1348 338.7818C253.0004 350.4544 253.9698 362.5806 254.7534 374.253Q228.0262 374.9748 201.3816 373.8406ZM309.8782 386.0906Q302.619 386.338 295.4422 386.4206V377.9858H285.007V386.4412Q276.4692 386.4412 267.9314 386.0494S267.684 380.1512 267.6014 377.264S267.6014 371.5308 267.3952 368.685C270.7362 368.953 302.8458 368.2518 310.0844 367.7362C309.5924 373.8972 309.5098 380.0838 309.837 386.2556ZM268.0552 368.2724C270.6742 365.3028 277.6654 357.2806 278.5108 357.033C278.8614 356.9092 298.8244 356.538 299.278 356.8268C300.8248 357.8992 307.0528 365.344 308.9502 367.1382C302.0828 367.592 274.7162 367.6332 268.0552 368.2724ZM320.4784 371.8196C317.122 371.8498 313.7696 372.0562 310.435 372.4382V367.3032C310.435 367.2826 300.3298 356.2288 299.8968 355.9812S283.2748 356.2082 279.047 356.27C277.3766 356.27 277.1704 356.9712 275.8712 358.3322C272.7572 361.6526 269.6844 365.0346 266.7764 368.4786C266.7764 368.4786 266.4672 372.3764 266.4878 374.2736C262.8788 374.3974 259.2492 374.5006 255.6196 374.583C255.1246 368.6024 254.8152 344.68 254.5678 338.72C256.63 338.72 300.9898 338.5756 321.097 338.0188C320.3752 343.525 320.6846 366.1896 320.5196 371.8196ZM298.5768 337.627C298.5768 332.0382 298.8038 326.8824 298.8656 321.2524C302.2272 321.0462 305.0524 321.2524 308.0222 321.0462C311.7054 326.7726 315.8432 332.1932 320.3958 337.2558Q309.5688 337.4826 298.6182 337.627Z" stroke-width="1"></path><path d="M288.513 269.6748C287.8634 267.3896 287.8634 264.9688 288.513 262.6836C287.42 257.7754 280.47 258.7858 278.3666 262.5186C279.1502 255.9606 274.242 257.8166 270.9836 257.7342C268.1788 254.9294 266.0546 251.2792 262.3426 255.3212C260.7996 257.5024 260.4952 260.3268 261.5382 262.7868C261.8888 260.7244 261.0228 257.4248 262.9818 255.4862C263.6722 254.6548 264.6858 254.1594 265.766 254.1252C267.2868 254.1724 268.5636 255.2852 268.8182 256.7854C271.4992 261.673 277.6654 253.6714 277.8716 263.426C280.5112 260.807 284.0584 257.4866 287.5642 261.7762C288.9254 264.1272 285.1926 267.8806 288.513 269.6748ZM256.3208 169.7366H259.5792V175.0572H256.3208ZM229.8822 204.0736H233.1406V209.3942H229.8822ZM221.9218 196.175H225.1802V201.4956H221.9218ZM194.5348 226.3256H197.7932V231.6462H194.5348ZM310.6412 232.1206V236.9464H313.9202V231.6256H310.6412V232.1206ZM346.4424 242.597H349.7008V247.9176H346.4424ZM352.2374 234.286H355.4958V239.6066H352.2374ZM366.096 206.734H369.3544V212.0546H366.096ZM381.893 247.9176H385.1514V253.2384H381.893ZM366.096 265.1584V270.0048H369.375V264.684H366.096V265.1584ZM280.5732 204.0736H283.8316V209.3942H280.5732ZM274.9226 204.0736H278.181V209.3942H274.9226ZM183.1304 69.6746C180.1606 71.9844 183.1304 77.4494 183.1304 77.4494C190.1214 72.2524 198.0818 76.707 198.0818 76.707L197.7726 70.1902C195.7514 67.5092 186.1206 67.3236 183.1304 69.6746Z" stroke-width="1"></path><path d="M191.2764 85.0592C196.9064 84.6262 196.0814 77.635 196.0814 77.635C190.7814 74.1292 184.8214 77.8206 184.8214 77.8206C184.842 80.5222 185.667 85.4716 191.2764 85.0592ZM269.5812 56.4554L269.2512 49.4848S267.189 45.216 260.5484 46.6182S254.2584 51.2996 254.2584 51.2996L254.7946 58.064C256.3086 55.0254 259.4898 53.1832 262.8788 53.3826C268.5706 53.8776 269.5812 56.4554 269.5812 56.4554Z" stroke-width="1"></path><path d="M263.25 54.4756C260.8186 54.1162 258.3804 55.0836 256.857 57.0122C256.7846 60.3032 259.5774 62.9328 262.8582 62.6628C268.8594 62.4566 267.7252 56.2492 267.7252 56.2492S267.3746 55.1356 263.25 54.4756ZM276.8404 75.284S276.3868 80.151 278.3666 81.4708C280.0136 79.0994 282.8446 77.8428 285.7082 78.2124C290.2658 79.058 290.6164 80.2748 290.6164 80.2748L290.864 75.6346S290.864 73.263 283.6048 73.098C283.6048 73.0568 278.119 73.5104 276.8404 75.284Z" stroke-width="1"></path><path d="M280.4288 80.6048C280.8206 85.1004 282.1198 86.6472 286.0588 86.1934S287.6674 79.6974 287.6674 79.6974C285.3266 78.3302 282.3598 78.702 280.4288 80.6048ZM263.415 113.127L263.7036 105.1046L258.548 102.3206L258.7542 110.1778L263.415 113.127ZM180.0368 50.8254C180.635 50.4954 180.2224 49.0106 179.5626 49.0518C171.7672 49.423 157.5168 64.8076 157.6198 64.8694S168.055 57.404 168.7974 57.6928C166.3812 60.2506 164.3838 63.1738 162.8788 66.3544C163.188 67.1586 172.922 62.704 173.912 62.2298C172.9134 64.8922 172.2216 67.6598 171.8496 70.4788C173.5736 70.0156 175.3224 69.6506 177.0878 69.3858C177.2164 69.954 177.2718 70.5362 177.2528 71.1182C177.8508 71.1182 178.1396 70.3964 178.2634 69.819C178.455 68.6582 178.455 67.4738 178.2634 66.313C178.119 66.21 174.3244 67.7774 173.7882 67.3648C174.778 64.7458 178.6346 59.1158 178.387 58.9302S171.6434 59.7344 169.1068 61.6936C172.1384 58.4352 174.4068 53.8156 180.0368 50.8254ZM210.6412 55.3418C209.8368 54.5374 209.1358 55.7542 209.6306 56.5584C210.4968 57.9608 212.9922 64.292 212.5798 66.0038C210.3112 64.7664 204.5162 61.673 204.0212 62.0648S204.413 65.0964 205.4854 65.2614C203.3864 64.642 201.2178 64.2886 199.0306 64.2096C201.5878 65.0138 207.0734 68.6228 207.5684 68.3342S207.094 65.7768 206.826 65.22C209.5924 66.2932 212.1898 67.7586 214.5388 69.5716C214.807 67.8186 214.2914 59.0744 210.6412 55.3418ZM241.5754 48C243.3284 48 248.4222 42.968 248.319 42.6794C237.5746 48.5568 246.463 38.926 248.0716 37.7918C248.4428 37.5236 248.8966 37.173 248.8346 36.6988C244.731 37.0708 240.8524 38.7392 237.7602 41.4626C239.5338 36.6988 247.3292 30.2438 246.9374 29.9758C246.7002 29.8436 246.4114 29.8436 246.1742 29.9758C239.5232 33.7772 234.0172 39.2976 230.2328 45.9584C230.4804 46.2264 230.8722 46.1028 231.1402 45.9584S234.3574 42.37 235.7392 41.3388C234.7952 43.4124 234.016 45.5568 233.4088 47.7526C235.9446 46.3106 238.371 44.6838 240.668 42.8856C238.7706 47.3402 240.9774 48.0206 241.5754 48ZM247.6592 46.474C248.154 46.309 249.0202 45.8758 249.144 45.319C249.242 44.8286 248.8096 44.3962 248.319 44.4942C247.8034 44.5972 246.7724 45.9172 247.1848 46.412C247.288 46.5564 247.4322 46.5152 247.6592 46.474ZM283.8522 46.7008C283.1346 43.9064 282.2672 41.1528 281.2538 38.4516C280.825 41.0042 280.0552 43.4874 278.9646 45.8346C278.3888 44.618 277.5996 43.5144 276.6342 42.5762C275.4408 43.9942 274.3518 45.4966 273.3758 47.072C272.499 46.304 271.3852 45.86 270.2206 45.814C271.5572 46.7032 272.655 47.907 273.417 49.32C273.566 49.6534 274.02 49.7004 274.2342 49.4048C274.2534 49.3782 274.2698 49.3498 274.2832 49.32C274.9074 48.4276 275.3618 47.4278 275.6236 46.3708C276.5432 47.7814 277.239 49.3258 277.686 50.9492C277.814 51.3914 278.3728 51.5292 278.6918 51.1972C278.7164 51.1716 278.7386 51.1438 278.7584 51.1142C280.134 49.2844 280.9054 47.0714 280.965 44.783L281.9548 53.032C281.9956 53.4428 282.4656 53.6554 282.801 53.4148C282.8152 53.4048 282.8286 53.394 282.8416 53.3826C285.3044 50.9826 287.0106 47.9144 287.75 44.556C290.0184 36.1006 286.7394 30.9862 285.5846 31.2956C285.84 35.3314 285.5976 39.3834 284.8628 43.36C284.7412 44.5276 284.3982 45.6616 283.8522 46.7008ZM288.0592 70.6232C287.8324 70.6232 287.358 70.9946 287.4818 71.2832S292.3488 69.5096 297.1746 76.0678C297.422 75.181 295.1122 70.9532 295.1122 70.8708C297.6314 71.2376 300.13 71.7332 302.5984 72.3556C302.454 71.5306 299.4224 67.4886 298.8656 65.9212C303.3408 66.3132 307.1148 72.995 307.5272 73.7992C306.558 70.1284 303.815 62.0442 289.0698 61.2812C297.092 64.9314 296.7002 67.2824 299.278 69.6746C298.3088 70.0046 292.9262 68.5816 291.2146 68.5198C291.2146 68.7672 292.8232 69.8602 293.153 70.582C291.4874 70.0998 289.717 70.114 288.0592 70.6232ZM210.4968 97.7216C207.5292 96.2006 205.5006 93.316 205.073 90.0088C204.9836 89.9138 204.8326 89.9138 204.743 90.0088C204.1708 92.0992 204.734 94.3366 206.228 95.9068C200.7834 94.752 197.9788 89.72 197.6694 89.5962C197.2776 91.1224 197.9994 97.3918 203.2994 98.1342C201.1512 97.1368 199.573 95.217 199.01 92.9166C200.1442 94.4838 203.4232 97.2474 210.4968 97.7216ZM245.9062 90.6894C243.638 91.2606 241.4008 91.9488 239.2038 92.7516S238.9356 93.061 238.977 93.1022C239.245 93.5352 240.4 102.7948 240.4 102.8156C240.3994 102.938 240.505 103.034 240.6268 103.0218C243.0298 102.5542 245.3842 101.8638 247.6592 100.9594C247.4136 97.6106 246.938 94.2824 246.2362 90.9986C246.2724 90.8058 246.0962 90.6406 245.9062 90.6892ZM240.8948 102.4856C240.4206 99.351 240.1524 96.1544 239.5338 93.061C241.596 92.6278 243.844 91.8854 245.9474 91.2462C245.9822 94.4616 246.3694 97.6636 247.1024 100.7944C244.9824 101.1518 242.9032 101.7182 240.8948 102.4856ZM231.0784 100.5882S231.6558 105.0428 231.759 105.0428C233.73 104.7278 235.6552 104.1738 237.4922 103.393C237.2976 101.8848 236.9802 100.395 236.5434 98.9384C234.6924 99.3854 232.8678 99.9362 231.0784 100.5882ZM236.9146 103.0836C235.2656 103.4698 233.646 103.9728 232.0684 104.589C231.8806 103.317 231.619 102.0568 231.2846 100.8152C233.081 100.571 234.8448 100.1282 236.5434 99.4952C236.5218 100.702 236.6464 101.907 236.9146 103.0836Z" stroke-width="1"></path><path d="M206.7228 81.2234C203.2994 81.2234 199.2986 83.925 196.7002 85.9872C194.044 87.976 192.2978 90.9482 191.8538 94.2364C191.0288 101.8462 200.7628 102.898 206.1042 102.1144C206.1836 102.1132 206.232 102.0266 206.1914 101.9584C206.173 101.9276 206.14 101.9086 206.1042 101.908C202.7838 101.908 199.3192 102.4442 196.2464 100.7944C193.0852 99.3008 191.5832 95.6442 192.7818 92.3598C193.7196 89.4798 195.6298 87.0156 198.185 85.3892C200.6936 83.4384 203.625 82.1034 206.7434 81.4914C206.8146 81.4126 206.8052 81.2904 206.7228 81.2234ZM193.2768 106.507C193.4418 106.507 193.5242 106.3214 193.4004 106.2594C188.244 103.8342 186.2032 97.5608 188.946 92.566H188.781C185.5236 97.5878 187.6994 104.3342 193.2768 106.507ZM156.0526 72.5206C161.765 80.2954 171.7878 82.7288 180.965 81.4914C181.233 81.4914 181.1712 81.0378 180.965 81.0378C164.7142 81.2234 155.7638 74.0878 154.0316 65.4056C151.7012 53.6094 168.6944 47.4844 180.4906 45.1334C189.1284 43.4836 198.0246 43.7724 206.5372 45.979C211.0048 46.9562 215.0648 49.2814 218.1686 52.6402C221.7156 56.7648 224.0254 62.601 219.8596 67.0762C219.5708 67.3648 220.2926 67.8392 220.5608 67.5298C226.5208 61.1986 220.437 52.1452 214.5596 48.33C210.4788 46.0092 205.9658 44.5494 201.299 44.0404C196.1762 43.1268 190.9578 42.8704 185.77 43.2774C173.6438 44.3498 154.3616 51.279 152.7736 61.343C152.3682 65.3538 153.5448 69.3644 156.0526 72.5206Z" stroke-width="1"></path><path d="M149.8658 71.4482C147.6796 68.0248 144.05 59.4664 154.8564 52.1452V52.0008C147.1228 54.95 143.9058 65.2614 149.577 71.572C149.7008 71.7162 149.9688 71.4482 149.8658 71.4482ZM230.4598 56.476C230.555 56.476 230.6146 56.3728 230.5668 56.2904C230.5448 56.2522 230.504 56.2286 230.4598 56.2286C227.6324 55.9684 225.345 53.817 224.9122 51.011C224.5116 47.9814 225.2462 44.9108 226.9744 42.3906C229.0556 38.7772 231.7412 35.5476 234.9142 32.8422C248.1748 21.1492 269.5812 15.354 285.007 25.1706C293.05 30.3056 295.6072 42.5968 288.678 49.6704C288.3274 50.0004 288.843 50.516 289.1936 50.186C294.2254 45.6284 294.308 36.4306 291.359 30.7388C283.3572 15.2716 246.8342 13.725 228.3974 38.8848C226.0052 42.1226 223.448 46.2678 224.0254 50.4748C224.3016 53.8352 227.0882 56.4342 230.4598 56.476ZM299.2368 39.8128C299.2368 39.924 299.3572 39.9934 299.4534 39.9378C299.498 39.912 299.5256 39.8644 299.5256 39.8128C301.9292 33.344 299.3148 26.0848 293.3388 22.634C293.215 22.634 293.1118 22.737 293.2356 22.8196C298.6702 26.6132 301.0838 33.4476 299.2368 39.8128ZM269.3544 64.6014C269.2306 64.6014 269.3544 64.8696 269.4574 64.787C279.2326 58.6002 293.8956 53.9188 304.4132 61.075C309.342 64.4364 312.3736 70.644 310.1256 76.5008S300.0412 84.75 294.3698 86.4204C294.1842 86.4204 294.2048 86.7916 294.3698 86.771C299.938 86.0904 307.3416 83.327 310.167 78.0888C312.703 72.8752 311.5402 66.6172 307.3004 62.6628C297.422 52.8876 279.3358 57.1772 269.3544 64.6014ZM313.714 78.3774C313.6432 78.5016 313.7332 78.6558 313.8762 78.655C313.9232 78.6548 313.9686 78.6368 314.0028 78.6044C318.3542 74.1292 316.395 67.3648 314.0028 62.4772C313.8996 62.2504 313.5696 62.4772 313.6728 62.6628C316.1682 67.8804 317.055 73.3454 313.714 78.3774ZM300.6392 139.2972L301.5466 135.7296C302.0828 135.0078 298.7624 132.8424 295.7722 132.6568C294.1646 132.4346 292.5952 133.265 291.8744 134.719L291.6476 136.7812C294.8766 135.6798 298.4506 136.6798 300.6392 139.2972Z" stroke-width="1"></path><path d="M295.896 142.1226C298.6182 142.267 299.01 138.823 299.01 138.823C297.2474 137.479 294.9518 137.0504 292.8232 137.668C292.1264 139.803 293.6526 142.0156 295.896 142.1226ZM344.2152 140.9884C345.5596 139.6692 345.8398 137.6068 344.8958 135.977C343.081 133.461 336.6466 134.7396 335.9042 136.3688L335.5742 139.5034C336.8656 137.908 339.025 137.304 340.9568 137.998C344.2152 139.2766 344.2152 140.9884 344.2152 140.9884Z" stroke-width="1"></path><path d="M336.8528 139.0704C336.1592 141.097 337.5632 143.2338 339.6988 143.4012C342.2354 143.8756 342.8748 140.7614 342.8748 140.7614S343.3078 139.4004 340.8124 138.6992C339.5084 138.1876 338.039 138.3254 336.8528 139.0704ZM347.1642 155.6512C348.8396 155.699 350.3834 156.5712 351.2888 157.9816C352.155 157.3216 352.2374 155.1356 352.2374 155.1356C351.825 152.3928 344.9164 152.0628 344.2564 153.424C343.8684 154.34 343.8244 155.3652 344.1326 156.3112S344.3596 155.548 347.1642 155.6512Z" stroke-width="1"></path><path d="M347.4736 160.745C350.4638 160.58 349.8864 157.2804 349.8864 157.2804C348.6434 156.2918 346.9976 155.9688 345.4732 156.4142S344.504 160.9306 347.4736 160.745ZM339.74 151.5472C339.231 149.9052 338.2216 148.463 336.8528 147.4226L337.8634 143.8342S337.5952 143.9786 336.4816 143.2362S335.7598 140.0396 335.7598 140.0396S335.2442 140.3284 335.0586 140.0396C335.053 138.8776 335.1566 137.7178 335.368 136.575L324.1492 141.5658C320.1484 139.751 311.3218 140.9678 311.3218 140.9678C308.5464 138.9094 305.5086 137.231 302.289 135.977L301.5466 139.5034L305.8568 143.8342C304.8056 144.1306 304.0092 144.9908 303.7944 146.0616C303.382 149.485 305.733 150.1862 306.496 150.1862C305.4442 154.9706 304.7018 159.8788 303.6502 164.622C303.6502 164.622 312.5592 173.6962 312.6416 173.7168C319.0754 174.807 325.5846 175.393 332.1096 175.4696C334.0666 169.9038 335.5904 164.1948 336.6672 158.394C339.0802 158.394 339.8638 155.61 339.8638 155.61H343.2254C343.182 154.6116 343.3434 153.615 343.6996 152.6814ZM307.8984 146.206L329.676 148.2682C328.7068 151.176 326.0464 163.7766 325.3246 167.0144C325.3246 167.0144 307.6922 164.952 304.145 164.622C305.7518 158.5612 307.0052 152.4122 307.8984 146.206ZM312.8892 173.5106C310.3016 170.5036 307.4962 167.6914 304.4956 165.0964C307.6716 165.88 321.7982 167.4062 325.5516 167.6948C327.6138 170.2108 329.9236 172.5824 331.9858 175.1192C325.5928 174.8098 319.2616 173.8612 312.8892 173.5106ZM332.1508 174.6036C330.2438 171.9756 328.119 169.5128 325.799 167.2412S329.6554 151.609 330.0886 148.8456C330.0886 148.8456 336.4404 158.4352 336.5022 158.4352C334.6256 163.6734 333.5944 169.2622 332.1508 174.5622ZM336.9972 152.269C332.2334 143.1744 318.2098 143.5662 309.5688 144.4324C309.342 144.4324 309.3008 144.0612 309.5688 144.0198C315.3472 142.9382 321.2946 143.1638 326.9744 144.6798C331.3508 145.4848 335.1844 148.098 337.5334 151.8772C337.719 152.3102 337.1828 152.6196 336.9972 152.269Z" stroke-width="1"></path><path d="M293.5242 118.5714C287.9768 118.5714 278.3252 119.9324 277.4178 126.8204C276.7166 132.3062 283.4604 137.998 288.4718 138.2868C288.5954 138.2868 288.5954 138.1012 288.4718 138.0598C283.976 136.2656 276.5518 132.3886 278.1602 126.2636S288.678 118.8806 293.9368 119.1488C301.299 119.4374 311.7548 121.7884 315.5908 128.1402C317.653 131.4812 317.5292 136.3894 313.3016 137.8536C313.1586 137.8934 313.1124 138.0728 313.2182 138.1768C313.2672 138.225 313.3384 138.2432 313.4046 138.2248C320.2514 136.3894 317.323 128.0372 313.549 124.7376C311.1384 122.7694 308.3208 121.3606 305.3 120.613C301.482 119.4162 297.5224 118.7296 293.5242 118.5714Z" stroke-width="1"></path><path d="M311.8992 134.9252C313.9616 132.2236 313.5284 127.0886 309.837 125.9544C309.6514 125.9544 309.5688 126.2018 309.837 126.2842C313.219 127.4804 313.0748 132.203 311.7342 134.8014C311.5692 134.9664 311.7754 135.0696 311.8992 134.9252ZM308.4758 134.1622C309.9702 132.948 310.1218 130.7214 308.8058 129.3158C308.6202 129.1508 308.3522 129.3158 308.5378 129.584C309.837 130.945 309.0326 132.5948 308.2284 133.9766C308.1922 134.0984 308.3016 134.2136 308.425 134.1838C308.443 134.1796 308.4602 134.1722 308.4758 134.1622ZM306.4136 132.3062C306.4136 132.1 306.166 131.9968 306.0836 132.3062S305.7742 132.8836 305.6506 133.193S305.7536 133.3992 305.8362 133.3372C306.125 133.0572 306.3258 132.6988 306.4136 132.3062ZM288.3686 121.9948C284.6564 122.1184 279.9338 124.057 279.9958 128.4702C279.9958 128.6764 280.2638 128.6558 280.305 128.4702C280.7588 124.3458 284.5946 122.4278 288.3686 122.2834C288.513 122.2216 288.513 121.9948 288.3686 121.9948ZM289.4822 124.5106C286.8776 124.7168 284.552 126.2208 283.2954 128.5116S283.2954 128.6764 283.4192 128.5116C284.7934 126.3744 287.0758 124.9896 289.606 124.7582C289.6884 124.82 289.709 124.5106 289.4822 124.5106ZM287.9148 129.192S288.0592 129.3158 288.0798 129.192C288.1526 128.6432 288.4616 128.1536 288.9254 127.8516C289.0492 127.8516 288.9254 127.5422 288.8016 127.6248C288.2364 127.9404 287.8944 128.545 287.9148 129.192ZM321.0146 132.9866C316.89 127.666 327.8406 122.964 331.5322 121.7884C336.3868 120.2394 341.541 119.8716 346.5662 120.716C359.9504 123.0052 366.7766 132.9042 350.9588 140.3902C350.7526 140.3902 350.9588 140.844 351.1238 140.7822C363.7038 137.1318 365.5598 123.397 346.7106 120.1592C340.5232 119.1338 334.1708 119.944 328.4388 122.4896C324.9328 124.0364 316.8488 128.3672 320.829 133.131C320.932 133.3166 321.097 133.1104 321.0146 132.9866Z" stroke-width="1"></path><path d="M355.599 131.9556C355.599 132.1824 356.0114 132.2648 356.0526 131.9556C356.7886 128.277 354.2646 124.7414 350.5464 124.2426C350.3196 124.2426 350.3196 124.552 350.5464 124.5726C354.3204 125.0676 355.434 128.6558 355.599 131.9556ZM350.8558 128.2022C351.6848 129.0134 352.134 130.1364 352.0932 131.2956C352.1374 131.4146 352.2938 131.4412 352.3748 131.3434C352.3866 131.3292 352.396 131.313 352.4024 131.2956C352.6696 130.002 352.1826 128.6684 351.1444 127.8516C350.9588 127.7072 350.6496 128.0166 350.8558 128.2022ZM349.371 132.2236C349.4226 131.8612 349.4226 131.4932 349.371 131.1306C349.371 130.8626 348.9378 130.8626 348.9584 131.1306C348.9476 131.499 348.9892 131.867 349.0822 132.2236C349.1028 132.368 349.3502 132.3886 349.371 132.2236ZM360.5898 138.5548S360.5898 138.823 360.734 138.7404C365.1202 135.4742 366.3384 129.4268 363.5594 124.717C363.4496 124.6024 363.2568 124.6496 363.2126 124.802C363.203 124.8348 363.2018 124.8692 363.2088 124.9026C365.673 129.5002 364.5804 135.1954 360.5898 138.5548ZM349.9484 164.2508C354.0728 163.7972 358.6718 163.096 362.0334 160.5182C364.9526 158.6912 365.9614 154.9172 364.343 151.8772C362.7964 148.6806 358.5894 147.0308 355.3928 146.041C351.1656 144.7702 346.6694 144.6916 342.4004 145.814C342.2972 145.814 342.4004 146.0202 342.4004 145.979C348.814 144.556 357.95 145.546 362.7552 150.5366C364.3112 152.2566 364.9342 154.6256 364.4256 156.8886C363.4776 158.8116 361.938 160.3802 360.0328 161.3636C357.1044 163.0548 353.083 163.2198 349.8452 164.024C349.7214 164.0446 349.742 164.354 349.9484 164.2508ZM366.2404 160.1264C368.7976 158.064 369.9112 153.2796 367.086 150.8666C366.9004 150.7224 366.6528 150.8666 366.8178 151.1348C369.3956 153.4652 367.9726 157.7548 366.0548 159.9408C365.931 160.1264 366.096 160.1264 366.2404 160.1264Z" stroke-width="1"></path><path d="M357.95 159.157C357.7232 159.157 357.7438 159.5902 357.95 159.5696C359.4824 159.4398 360.801 158.4348 361.3322 156.9916C361.9524 155.177 361.5682 153.1696 360.3216 151.7122C360.1772 151.5266 359.8266 151.7122 359.971 151.9184C362.0486 154.3666 360.9954 158.1392 357.95 159.157ZM358.7956 153.9394C358.5706 155.1382 357.9094 156.211 356.9394 156.9504C356.8522 157.0218 356.875 157.161 356.9804 157.201C357.0294 157.2194 357.0846 157.2104 357.125 157.1772C358.2828 156.5238 359.0112 155.3096 359.043 153.9808C359.0636 153.9394 358.7956 153.9394 358.7956 153.9394ZM356.1764 155.3624C356.1764 155.1768 355.9908 154.9912 355.8464 155.1562S355.2896 155.7336 355.0216 156.0224C354.9086 156.1556 354.982 156.361 355.1538 156.3924C355.1782 156.3968 355.2032 156.3972 355.2278 156.3936C355.721 156.2692 356.0934 155.8642 356.1764 155.3624ZM295.2772 153.5682C297.3406 154.4974 299.6522 154.7222 301.856 154.2076C301.983 154.2076 302.0622 154.07 301.9988 153.96C301.9694 153.909 301.9148 153.8776 301.856 153.8776C298.1644 153.8776 293.4212 153.8776 293.483 148.8868C293.483 144.7624 298.8244 143.1538 302.1858 143.0506V142.8856C298.3912 142.8856 293.0294 144.6798 293.0912 149.2374C292.8672 150.992 293.7326 152.7066 295.2772 153.5682Z" stroke-width="1"></path><path d="M302.5984 152.3308C300.5128 152.0494 299.3312 149.7916 300.2886 147.9176C300.2886 147.7938 300.2886 147.6702 300.103 147.7732C298.7356 149.7616 300.0334 152.4844 302.439 152.6744C302.4784 152.6776 302.5176 152.6798 302.557 152.6814C302.7634 152.7022 302.8046 152.3928 302.5984 152.331ZM291.0702 154.517C289.9772 152.5784 289.0078 148.8868 290.802 147.1134C290.8432 147.0274 290.7758 146.9292 290.6808 146.9366C290.6656 146.9378 290.6508 146.9418 290.637 146.9484C288.5748 148.6806 289.1728 152.8878 290.864 154.6818C290.967 154.8056 291.1526 154.6406 291.0702 154.517Z" stroke-width="1"></path></g></svg>